<?xml version="1.0" encoding="UTF-8" standalone="no"?><svg xmlns="http://www.w3.org/2000/svg" xmlns:xlink="http://www.w3.org/1999/xlink" height="1046" version="1.1" width="1044"><defs/><g><g transform="translate(-598,-78) scale(1,1)"><rect fill="#C0C0C0" height="132" opacity="0.2" stroke="none" width="217.69189453125" x="863" y="199"/></g><g transform="translate(-598,-78) scale(1,1)"><rect fill="#ffffff" height="132" stroke="none" width="217.69189453125" x="856" y="192"/></g><g transform="translate(-598,-78) scale(1,1)"><path d="M 856 192 L 1073.69189453125 192 L 1073.69189453125 324 L 856 324 L 856 192 Z Z" fill="none" stroke="#000000" stroke-miterlimit="10"/></g><g transform="translate(-598,-78) scale(1,1)"><path d="M 856 217 L 1073.69189453125 217" fill="none" stroke="#000000" stroke-miterlimit="10"/></g><g transform="translate(-598,-78) scale(1,1)"><path d="M 856 315 L 1073.69189453125 315" fill="none" stroke="#000000" stroke-miterlimit="10"/></g><g transform="translate(-598,-78) scale(1,1)"><g><path fill="none" stroke="none"/><text fill="#000000" font-family="Arial" font-size="13px" font-style="normal" font-weight="bold" stroke="none" text-decoration="none" x="944.98095703125" y="211.5">Orders</text></g></g><g transform="translate(-598,-78) scale(1,1)"><g><path fill="none" stroke="none"/><text fill="#000000" font-family="Arial" font-size="13px" font-style="normal" font-weight="normal" stroke="none" text-decoration="none" x="861" y="234.5">«PK»+order_id: integer</text></g></g><g transform="translate(-598,-78) scale(1,1)"><g><path fill="none" stroke="none"/><text fill="#000000" font-family="Arial" font-size="13px" font-style="normal" font-weight="normal" stroke="none" text-decoration="none" x="861" y="249.5">+received_time: timestampz</text></g></g><g transform="translate(-598,-78) scale(1,1)"><g><path fill="none" stroke="none"/><text fill="#000000" font-family="Arial" font-size="13px" font-style="normal" font-weight="normal" stroke="none" text-decoration="none" x="861" y="264.5">+start_time: timestampz</text></g></g><g transform="translate(-598,-78) scale(1,1)"><g><path fill="none" stroke="none"/><text fill="#000000" font-family="Arial" font-size="13px" font-style="normal" font-weight="normal" stroke="none" text-decoration="none" x="861" y="279.5">+end_time: timestampz</text></g></g><g transform="translate(-598,-78) scale(1,1)"><g><path fill="none" stroke="none"/><text fill="#000000" font-family="Arial" font-size="13px" font-style="normal" font-weight="normal" stroke="none" text-decoration="none" x="861" y="294.5">+maxdelay: timestampz</text></g></g><g transform="translate(-598,-78) scale(1,1)"><g><path fill="none" stroke="none"/><text fill="#000000" font-family="Arial" font-size="13px" font-style="normal" font-weight="normal" stroke="none" text-decoration="none" x="861" y="309.5">+curr_state: order_state</text></g></g><g transform="translate(-598,-78) scale(1,1)"><rect fill="#C0C0C0" height="120" opacity="0.2" stroke="none" width="200" x="647" y="383"/></g><g transform="translate(-598,-78) scale(1,1)"><rect fill="#ffffff" height="120" stroke="none" width="200" x="640" y="376"/></g><g transform="translate(-598,-78) scale(1,1)"><path d="M 640 376 L 840 376 L 840 496 L 640 496 L 640 376 Z Z" fill="none" stroke="#000000" stroke-miterlimit="10"/></g><g transform="translate(-598,-78) scale(1,1)"><path d="M 640 401 L 840 401" fill="none" stroke="#000000" stroke-miterlimit="10"/></g><g transform="translate(-598,-78) scale(1,1)"><path d="M 640 469 L 840 469" fill="none" stroke="#000000" stroke-miterlimit="10"/></g><g transform="translate(-598,-78) scale(1,1)"><g><path fill="none" stroke="none"/><text fill="#000000" font-family="Arial" font-size="13px" font-style="normal" font-weight="bold" stroke="none" text-decoration="none" x="690.510498046875" y="395.5">transform_orders</text></g></g><g transform="translate(-598,-78) scale(1,1)"><g><path fill="none" stroke="none"/><text fill="#000000" font-family="Arial" font-size="13px" font-style="normal" font-weight="normal" stroke="none" text-decoration="none" x="645" y="418.5">+before_type: integer</text></g></g><g transform="translate(-598,-78) scale(1,1)"><g><path fill="none" stroke="none"/><text fill="#000000" font-family="Arial" font-size="13px" font-style="normal" font-weight="normal" stroke="none" text-decoration="none" x="645" y="433.5">+after_type: integer</text></g></g><g transform="translate(-598,-78) scale(1,1)"><g><path fill="none" stroke="none"/><text fill="#000000" font-family="Arial" font-size="13px" font-style="normal" font-weight="normal" stroke="none" text-decoration="none" x="645" y="448.5">+batch_size: integer</text></g></g><g transform="translate(-598,-78) scale(1,1)"><g><path fill="none" stroke="none"/><text fill="#000000" font-family="Arial" font-size="13px" font-style="normal" font-weight="normal" stroke="none" text-decoration="none" x="645" y="463.5">+produced: integer</text></g></g><g transform="translate(-598,-78) scale(1,1)"><rect fill="#C0C0C0" height="120" opacity="0.2" stroke="none" width="200" x="895" y="383"/></g><g transform="translate(-598,-78) scale(1,1)"><rect fill="#ffffff" height="120" stroke="none" width="200" x="888" y="376"/></g><g transform="translate(-598,-78) scale(1,1)"><path d="M 888 376 L 1088 376 L 1088 496 L 888 496 L 888 376 Z Z" fill="none" stroke="#000000" stroke-miterlimit="10"/></g><g transform="translate(-598,-78) scale(1,1)"><path d="M 888 401 L 1088 401" fill="none" stroke="#000000" stroke-miterlimit="10"/></g><g transform="translate(-598,-78) scale(1,1)"><path d="M 888 469 L 1088 469" fill="none" stroke="#000000" stroke-miterlimit="10"/></g><g transform="translate(-598,-78) scale(1,1)"><g><path fill="none" stroke="none"/><text fill="#000000" font-family="Arial" font-size="13px" font-style="normal" font-weight="bold" stroke="none" text-decoration="none" x="946.44189453125" y="395.5">unload_orders</text></g></g><g transform="translate(-598,-78) scale(1,1)"><g><path fill="none" stroke="none"/><text fill="#000000" font-family="Arial" font-size="13px" font-style="normal" font-weight="normal" stroke="none" text-decoration="none" x="893" y="418.5">+curr_type: integer</text></g></g><g transform="translate(-598,-78) scale(1,1)"><g><path fill="none" stroke="none"/><text fill="#000000" font-family="Arial" font-size="13px" font-style="normal" font-weight="normal" stroke="none" text-decoration="none" x="893" y="433.5">+destination: integer</text></g></g><g transform="translate(-598,-78) scale(1,1)"><g><path fill="none" stroke="none"/><text fill="#000000" font-family="Arial" font-size="13px" font-style="normal" font-weight="normal" stroke="none" text-decoration="none" x="893" y="448.5">+batch_size: integer</text></g></g><g transform="translate(-598,-78) scale(1,1)"><g><path fill="none" stroke="none"/><text fill="#000000" font-family="Arial" font-size="13px" font-style="normal" font-weight="normal" stroke="none" text-decoration="none" x="893" y="463.5">+unloaded: integer</text></g></g><g transform="translate(-598,-78) scale(1,1)"><rect fill="#C0C0C0" height="152" opacity="0.2" stroke="none" width="173.3916015625" x="903" y="831"/></g><g transform="translate(-598,-78) scale(1,1)"><rect fill="#ffffff" height="152" stroke="none" width="173.3916015625" x="896" y="824"/></g><g transform="translate(-598,-78) scale(1,1)"><path d="M 896 824 L 1069.3916015625 824 L 1069.3916015625 976 L 896 976 L 896 824 Z Z" fill="none" stroke="#000000" stroke-miterlimit="10"/></g><g transform="translate(-598,-78) scale(1,1)"><path d="M 896 849 L 1069.3916015625 849" fill="none" stroke="#000000" stroke-miterlimit="10"/></g><g transform="translate(-598,-78) scale(1,1)"><path d="M 896 902 L 1069.3916015625 902" fill="none" stroke="#000000" stroke-miterlimit="10"/></g><g transform="translate(-598,-78) scale(1,1)"><g><path fill="none" stroke="none"/><text fill="#000000" font-family="Arial" font-size="13px" font-style="normal" font-weight="bold" stroke="none" text-decoration="none" x="954.877197265625" y="843.5">machines</text></g></g><g transform="translate(-598,-78) scale(1,1)"><g><path fill="none" stroke="none"/><text fill="#000000" font-family="Arial" font-size="13px" font-style="normal" font-weight="normal" stroke="none" text-decoration="none" x="901" y="866.5">«PK»+machine_id: serial</text></g></g><g transform="translate(-598,-78) scale(1,1)"><g><path fill="none" stroke="none"/><text fill="#000000" font-family="Arial" font-size="13px" font-style="normal" font-weight="normal" stroke="none" text-decoration="none" x="901" y="881.5">+machine_type: char</text></g></g><g transform="translate(-598,-78) scale(1,1)"><g><path fill="none" stroke="none"/><text fill="#000000" font-family="Arial" font-size="13px" font-style="normal" font-weight="normal" stroke="none" text-decoration="none" x="901" y="896.5">+transformation_cell: integer</text></g></g><g transform="translate(-598,-78) scale(1,1)"><rect fill="#C0C0C0" height="117" opacity="0.2" stroke="none" width="204.48876953125" x="639" y="559"/></g><g transform="translate(-598,-78) scale(1,1)"><rect fill="#ffffff" height="117" stroke="none" width="204.48876953125" x="632" y="552"/></g><g transform="translate(-598,-78) scale(1,1)"><path d="M 632 552 L 836.48876953125 552 L 836.48876953125 669 L 632 669 L 632 552 Z Z" fill="none" stroke="#000000" stroke-miterlimit="10"/></g><g transform="translate(-598,-78) scale(1,1)"><path d="M 632 577 L 836.48876953125 577" fill="none" stroke="#000000" stroke-miterlimit="10"/></g><g transform="translate(-598,-78) scale(1,1)"><path d="M 632 600 L 836.48876953125 600" fill="none" stroke="#000000" stroke-miterlimit="10"/></g><g transform="translate(-598,-78) scale(1,1)"><g><path fill="none" stroke="none"/><text fill="#000000" font-family="Arial" font-size="13px" font-style="normal" font-weight="bold" stroke="none" text-decoration="none" x="672.824462890625" y="571.5">transform_operations</text></g></g><g transform="translate(-598,-78) scale(1,1)"><g><path fill="none" stroke="none"/><text fill="#000000" font-family="Arial" font-size="13px" font-style="normal" font-weight="normal" stroke="none" text-decoration="none" x="637" y="594.5">«FK»+transform_id: integer</text></g></g><g transform="translate(-598,-78) scale(1,1)"><rect fill="#C0C0C0" height="87" opacity="0.2" stroke="none" width="150.29248046875" x="999" y="575"/></g><g transform="translate(-598,-78) scale(1,1)"><rect fill="#ffffff" height="87" stroke="none" width="150.29248046875" x="992" y="568"/></g><g transform="translate(-598,-78) scale(1,1)"><path d="M 992 568 L 1142.29248046875 568 L 1142.29248046875 655 L 992 655 L 992 568 Z Z" fill="none" stroke="#000000" stroke-miterlimit="10"/></g><g transform="translate(-598,-78) scale(1,1)"><path d="M 992 593 L 1142.29248046875 593" fill="none" stroke="#000000" stroke-miterlimit="10"/></g><g transform="translate(-598,-78) scale(1,1)"><path d="M 992 646 L 1142.29248046875 646" fill="none" stroke="#000000" stroke-miterlimit="10"/></g><g transform="translate(-598,-78) scale(1,1)"><g><path fill="none" stroke="none"/><text fill="#000000" font-family="Arial" font-size="13px" font-style="normal" font-weight="bold" stroke="none" text-decoration="none" x="1035.350830078125" y="587.5">Operations</text></g></g><g transform="translate(-598,-78) scale(1,1)"><g><path fill="none" stroke="none"/><text fill="#000000" font-family="Arial" font-size="13px" font-style="normal" font-weight="normal" stroke="none" text-decoration="none" x="997" y="610.5">«PK»+op_id: serial</text></g></g><g transform="translate(-598,-78) scale(1,1)"><g><path fill="none" stroke="none"/><text fill="#000000" font-family="Arial" font-size="13px" font-style="normal" font-weight="normal" stroke="none" text-decoration="none" x="997" y="625.5">«FK»+piece__id: integer</text></g></g><g transform="translate(-598,-78) scale(1,1)"><g><path fill="none" stroke="none"/><text fill="#000000" font-family="Arial" font-size="13px" font-style="normal" font-weight="normal" stroke="none" text-decoration="none" x="997" y="640.5">«FK»+order_id: integer</text></g></g><g transform="translate(-598,-78) scale(1,1)"><rect fill="#C0C0C0" height="149" opacity="0.2" stroke="none" width="158.931640625" x="671" y="831"/></g><g transform="translate(-598,-78) scale(1,1)"><rect fill="#ffffff" height="149" stroke="none" width="158.931640625" x="664" y="824"/></g><g transform="translate(-598,-78) scale(1,1)"><path d="M 664 824 L 822.931640625 824 L 822.931640625 973 L 664 973 L 664 824 Z Z" fill="none" stroke="#000000" stroke-miterlimit="10"/></g><g transform="translate(-598,-78) scale(1,1)"><path d="M 664 849 L 822.931640625 849" fill="none" stroke="#000000" stroke-miterlimit="10"/></g><g transform="translate(-598,-78) scale(1,1)"><path d="M 664 949 L 822.931640625 949" fill="none" stroke="#000000" stroke-miterlimit="10"/></g><g transform="translate(-598,-78) scale(1,1)"><g><path fill="none" stroke="none"/><text fill="#000000" font-family="Arial" font-size="13px" font-style="normal" font-weight="bold" stroke="none" text-decoration="none" x="712.765380859375" y="843.5">transforms</text></g></g><g transform="translate(-598,-78) scale(1,1)"><g><path fill="none" stroke="none"/><text fill="#000000" font-family="Arial" font-size="13px" font-style="normal" font-weight="normal" stroke="none" text-decoration="none" x="669" y="868.5">«PK»+transform_id: serial</text></g></g><g transform="translate(-598,-78) scale(1,1)"><g><path fill="none" stroke="none"/><text fill="#000000" font-family="Arial" font-size="13px" font-style="normal" font-weight="normal" stroke="none" text-decoration="none" x="669" y="883.5">«FK»+machine: integer</text></g></g><g transform="translate(-598,-78) scale(1,1)"><g><path fill="none" stroke="none"/><text fill="#000000" font-family="Arial" font-size="13px" font-style="normal" font-weight="normal" stroke="none" text-decoration="none" x="669" y="898.5">+tool: integer</text></g></g><g transform="translate(-598,-78) scale(1,1)"><g><path fill="none" stroke="none"/><text fill="#000000" font-family="Arial" font-size="13px" font-style="normal" font-weight="normal" stroke="none" text-decoration="none" x="669" y="913.5">+initial_type: integer</text></g></g><g transform="translate(-598,-78) scale(1,1)"><g><path fill="none" stroke="none"/><text fill="#000000" font-family="Arial" font-size="13px" font-style="normal" font-weight="normal" stroke="none" text-decoration="none" x="669" y="928.5">+final_type: integer</text></g></g><g transform="translate(-598,-78) scale(1,1)"><g><path fill="none" stroke="none"/><text fill="#000000" font-family="Arial" font-size="13px" font-style="normal" font-weight="normal" stroke="none" text-decoration="none" x="669" y="943.5">+duration: integer</text></g></g><g transform="translate(-598,-78) scale(1,1)"><rect fill="#C0C0C0" height="104" opacity="0.2" stroke="none" width="184.271484375" x="1303" y="567"/></g><g transform="translate(-598,-78) scale(1,1)"><rect fill="#ffffff" height="104" stroke="none" width="184.271484375" x="1296" y="560"/></g><g transform="translate(-598,-78) scale(1,1)"><path d="M 1296 560 L 1480.271484375 560 L 1480.271484375 664 L 1296 664 L 1296 560 Z Z" fill="none" stroke="#000000" stroke-miterlimit="10"/></g><g transform="translate(-598,-78) scale(1,1)"><path d="M 1296 585 L 1480.271484375 585" fill="none" stroke="#000000" stroke-miterlimit="10"/></g><g transform="translate(-598,-78) scale(1,1)"><path d="M 1296 608 L 1480.271484375 608" fill="none" stroke="#000000" stroke-miterlimit="10"/></g><g transform="translate(-598,-78) scale(1,1)"><g><path fill="none" stroke="none"/><text fill="#000000" font-family="Arial" font-size="13px" font-style="normal" font-weight="bold" stroke="none" text-decoration="none" x="1334.647216796875" y="579.5">unload_operations</text></g></g><g transform="translate(-598,-78) scale(1,1)"><g><path fill="none" stroke="none"/><text fill="#000000" font-family="Arial" font-size="13px" font-style="normal" font-weight="normal" stroke="none" text-decoration="none" x="1301" y="602.5">«FK»+unloading_area: integer</text></g></g><g transform="translate(-598,-78) scale(1,1)"><rect fill="#C0C0C0" height="120" opacity="0.2" stroke="none" width="160" x="1143" y="383"/></g><g transform="translate(-598,-78) scale(1,1)"><rect fill="#ffffff" height="120" stroke="none" width="160" x="1136" y="376"/></g><g transform="translate(-598,-78) scale(1,1)"><path d="M 1136 376 L 1296 376 L 1296 496 L 1136 496 L 1136 376 Z Z" fill="none" stroke="#000000" stroke-miterlimit="10"/></g><g transform="translate(-598,-78) scale(1,1)"><path d="M 1136 401 L 1296 401" fill="none" stroke="#000000" stroke-miterlimit="10"/></g><g transform="translate(-598,-78) scale(1,1)"><path d="M 1136 411 L 1296 411" fill="none" stroke="#000000" stroke-miterlimit="10"/></g><g transform="translate(-598,-78) scale(1,1)"><g><path fill="none" stroke="none"/><text fill="#000000" font-family="Arial" font-size="13px" font-style="normal" font-weight="bold" stroke="none" text-decoration="none" x="1178.7900390625" y="395.5">stock_orders</text></g></g><g transform="translate(-598,-78) scale(1,1)"><rect fill="#C0C0C0" height="112" opacity="0.2" stroke="none" width="194.3642578125" x="1431" y="215"/></g><g transform="translate(-598,-78) scale(1,1)"><rect fill="#ffffff" height="112" stroke="none" width="194.3642578125" x="1424" y="208"/></g><g transform="translate(-598,-78) scale(1,1)"><path d="M 1424 208 L 1618.3642578125 208 L 1618.3642578125 320 L 1424 320 L 1424 208 Z Z" fill="none" stroke="#000000" stroke-miterlimit="10"/></g><g transform="translate(-598,-78) scale(1,1)"><path d="M 1424 233 L 1618.3642578125 233" fill="none" stroke="#000000" stroke-miterlimit="10"/></g><g transform="translate(-598,-78) scale(1,1)"><path d="M 1424 301 L 1618.3642578125 301" fill="none" stroke="#000000" stroke-miterlimit="10"/></g><g transform="translate(-598,-78) scale(1,1)"><g><path fill="none" stroke="none"/><text fill="#000000" font-family="Arial" font-size="13px" font-style="normal" font-weight="bold" stroke="none" text-decoration="none" x="1502.39306640625" y="227.5">pieces</text></g></g><g transform="translate(-598,-78) scale(1,1)"><g><path fill="none" stroke="none"/><text fill="#000000" font-family="Arial" font-size="13px" font-style="normal" font-weight="normal" stroke="none" text-decoration="none" x="1429" y="250.5">«PK»+piece_id: Serial</text></g></g><g transform="translate(-598,-78) scale(1,1)"><g><path fill="none" stroke="none"/><text fill="#000000" font-family="Arial" font-size="13px" font-style="normal" font-weight="normal" stroke="none" text-decoration="none" x="1429" y="265.5">+piece_type: integer</text></g></g><g transform="translate(-598,-78) scale(1,1)"><g><path fill="none" stroke="none"/><text fill="#000000" font-family="Arial" font-size="13px" font-style="normal" font-weight="normal" stroke="none" text-decoration="none" x="1429" y="280.5">+piece_state; piece_state</text></g></g><g transform="translate(-598,-78) scale(1,1)"><g><path fill="none" stroke="none"/><text fill="#000000" font-family="Arial" font-size="13px" font-style="normal" font-weight="normal" stroke="none" text-decoration="none" x="1429" y="295.5">«FK»+associated_order: integer</text></g></g><g transform="translate(-598,-78) scale(1,1)"><path d="M 1075 259 L 1423 263" fill="none" stroke="#000000" stroke-miterlimit="10"/></g><g transform="translate(-598,-78) scale(1,1)"><g><path fill="none" stroke="none"/><text fill="#000000" font-family="Arial" font-size="13px" font-style="normal" font-weight="normal" stroke="none" text-decoration="none" x="1085.5" y="277.5">0..1</text></g></g><g transform="translate(-598,-78) scale(1,1)"><g><path fill="none" stroke="none"/><text fill="#000000" font-family="Arial" font-size="13px" font-style="normal" font-weight="normal" stroke="none" text-decoration="none" x="1398.5" y="281.5">*</text></g></g><g transform="translate(-598,-78) scale(1,1)"><rect fill="#C0C0C0" height="192" opacity="0.2" stroke="none" width="208" x="1191" y="863"/></g><g transform="translate(-598,-78) scale(1,1)"><rect fill="#ffffff" height="192" stroke="none" width="208" x="1184" y="856"/></g><g transform="translate(-598,-78) scale(1,1)"><path d="M 1184 856 L 1392 856 L 1392 1048 L 1184 1048 L 1184 856 Z Z" fill="none" stroke="#000000" stroke-miterlimit="10"/></g><g transform="translate(-598,-78) scale(1,1)"><path d="M 1184 894 L 1392 894" fill="none" stroke="#000000" stroke-miterlimit="10"/></g><g transform="translate(-598,-78) scale(1,1)"><g><path fill="none" stroke="none"/><text fill="#000000" font-family="Arial" font-size="13px" font-style="normal" font-weight="normal" stroke="none" text-decoration="none" x="1244.635986328125" y="873.5">«enumeration»</text></g></g><g transform="translate(-598,-78) scale(1,1)"><g><path fill="none" stroke="none"/><text fill="#000000" font-family="Arial" font-size="13px" font-style="normal" font-weight="bold" stroke="none" text-decoration="none" x="1254.754150390625" y="888.5">piece_state</text></g></g><g transform="translate(-598,-78) scale(1,1)"><g><path fill="none" stroke="none"/><text fill="#000000" font-family="Arial" font-size="13px" font-style="normal" font-weight="normal" stroke="none" text-decoration="none" x="1189" y="911.5">pending</text></g></g><g transform="translate(-598,-78) scale(1,1)"><g><path fill="none" stroke="none"/><text fill="#000000" font-family="Arial" font-size="13px" font-style="normal" font-weight="normal" stroke="none" text-decoration="none" x="1189" y="926.5">stored</text></g></g><g transform="translate(-598,-78) scale(1,1)"><g><path fill="none" stroke="none"/><text fill="#000000" font-family="Arial" font-size="13px" font-style="normal" font-weight="normal" stroke="none" text-decoration="none" x="1189" y="941.5">assemblying</text></g></g><g transform="translate(-598,-78) scale(1,1)"><g><path fill="none" stroke="none"/><text fill="#000000" font-family="Arial" font-size="13px" font-style="normal" font-weight="normal" stroke="none" text-decoration="none" x="1189" y="956.5">dispatched</text></g></g><g transform="translate(-598,-78) scale(1,1)"><path d="M 648 1056 L 818 1056 L 828 1066 L 828 1094 L 648 1094 L 648 1056" fill="#ffffff" stroke="none"/></g><g transform="translate(-598,-78) scale(1,1)"><path d="M 648 1056 L 818 1056 L 828 1066 L 828 1094 L 648 1094 L 648 1056 L 648 1056" fill="none" stroke="#000000" stroke-miterlimit="10"/></g><g transform="translate(-598,-78) scale(1,1)"><path d="M 818 1056 L 818 1066 L 828 1066 L 818 1056" fill="none" stroke="#000000" stroke-miterlimit="10"/></g><g transform="translate(-598,-78) scale(1,1)"><g><path fill="none" stroke="none"/><text fill="#000000" font-family="Arial" font-size="13px" font-style="normal" font-weight="normal" stroke="none" text-decoration="none" x="653" y="1074">(machine, tool): Unique</text></g></g><g transform="translate(-598,-78) scale(1,1)"><path d="M 739 1055 L 741 974" fill="none" stroke="#000000" stroke-dasharray="3" stroke-miterlimit="10"/></g><g transform="translate(-598,-78) scale(1,1)"><path d="M 880 1064 L 1069.76806640625 1064 L 1079.76806640625 1074 L 1079.76806640625 1113 L 880 1113 L 880 1064" fill="#ffffff" stroke="none"/></g><g transform="translate(-598,-78) scale(1,1)"><path d="M 880 1064 L 1069.76806640625 1064 L 1079.76806640625 1074 L 1079.76806640625 1113 L 880 1113 L 880 1064 L 880 1064" fill="none" stroke="#000000" stroke-miterlimit="10"/></g><g transform="translate(-598,-78) scale(1,1)"><path d="M 1069.76806640625 1064 L 1069.76806640625 1074 L 1079.76806640625 1074 L 1069.76806640625 1064" fill="none" stroke="#000000" stroke-miterlimit="10"/></g><g transform="translate(-598,-78) scale(1,1)"><g><path fill="none" stroke="none"/><text fill="#000000" font-family="Arial" font-size="13px" font-style="normal" font-weight="normal" stroke="none" text-decoration="none" x="885" y="1082">(machine_type,</text><text fill="#000000" font-family="Arial" font-size="13px" font-style="normal" font-weight="normal" stroke="none" text-decoration="none" x="885" y="1095">transformation_cell): Unique</text></g></g><g transform="translate(-598,-78) scale(1,1)"><path d="M 981 977 L 980 1063" fill="none" stroke="#000000" stroke-dasharray="3" stroke-miterlimit="10"/></g><g transform="translate(-598,-78) scale(1,1)"><rect fill="#C0C0C0" height="57" opacity="0.2" stroke="none" width="138.7333984375" x="1327" y="735"/></g><g transform="translate(-598,-78) scale(1,1)"><rect fill="#ffffff" height="57" stroke="none" width="138.7333984375" x="1320" y="728"/></g><g transform="translate(-598,-78) scale(1,1)"><path d="M 1320 728 L 1458.7333984375 728 L 1458.7333984375 785 L 1320 785 L 1320 728 Z Z" fill="none" stroke="#000000" stroke-miterlimit="10"/></g><g transform="translate(-598,-78) scale(1,1)"><path d="M 1320 753 L 1458.7333984375 753" fill="none" stroke="#000000" stroke-miterlimit="10"/></g><g transform="translate(-598,-78) scale(1,1)"><path d="M 1320 776 L 1458.7333984375 776" fill="none" stroke="#000000" stroke-miterlimit="10"/></g><g transform="translate(-598,-78) scale(1,1)"><g><path fill="none" stroke="none"/><text fill="#000000" font-family="Arial" font-size="13px" font-style="normal" font-weight="bold" stroke="none" text-decoration="none" x="1340.213623046875" y="747.5">unloading_zones</text></g></g><g transform="translate(-598,-78) scale(1,1)"><g><path fill="none" stroke="none"/><text fill="#000000" font-family="Arial" font-size="13px" font-style="normal" font-weight="normal" stroke="none" text-decoration="none" x="1325" y="770.5">«PK»+area_id: integer</text></g></g><g transform="translate(-598,-78) scale(1,1)"><path d="M 817 375 L 880 325" fill="none" stroke="#000000" stroke-miterlimit="10"/></g><g transform="translate(-598,-78) scale(1,1)"><path d="M 869.3131387134255 344.22995048983523 L 880 325 L 858.845619521419 331.0408763079072" fill="#FFFFFF" stroke="none"/></g><g transform="translate(-598,-78) scale(1,1)"><path d="M 869.3131387134255 344.22995048983523 L 880 325 L 858.845619521419 331.0408763079072 L 869.3131387134255 344.22995048983523" fill="none" stroke="#000000" stroke-miterlimit="10"/></g><g transform="translate(-598,-78) scale(1,1)"><path d="M 980 375 L 973 325" fill="none" stroke="#000000" stroke-miterlimit="10"/></g><g transform="translate(-598,-78) scale(1,1)"><path d="M 984.1557882617261 343.96176121196373 L 973 325 L 967.4803435931282 346.29632346556747" fill="#FFFFFF" stroke="none"/></g><g transform="translate(-598,-78) scale(1,1)"><path d="M 984.1557882617261 343.96176121196373 L 973 325 L 967.4803435931282 346.29632346556747 L 984.1557882617261 343.96176121196373" fill="none" stroke="#000000" stroke-miterlimit="10"/></g><g transform="translate(-598,-78) scale(1,1)"><path d="M 1135 379 L 1059 325" fill="none" stroke="#000000" stroke-miterlimit="10"/></g><g transform="translate(-598,-78) scale(1,1)"><path d="M 1080.445192293754 329.90955471340493 L 1059 325 L 1070.6924614643078 343.63562032521793" fill="#FFFFFF" stroke="none"/></g><g transform="translate(-598,-78) scale(1,1)"><path d="M 1080.445192293754 329.90955471340493 L 1059 325 L 1070.6924614643078 343.63562032521793 L 1080.445192293754 329.90955471340493" fill="none" stroke="#000000" stroke-miterlimit="10"/></g><g transform="translate(-598,-78) scale(1,1)"><path d="M 837 610 L 991 611" fill="none" stroke="#000000" stroke-miterlimit="10"/></g><g transform="translate(-598,-78) scale(1,1)"><path d="M 970.6204108775286 619.286878012813 L 991 611 L 970.7297466959791 602.4491619714306" fill="#FFFFFF" stroke="none"/></g><g transform="translate(-598,-78) scale(1,1)"><path d="M 970.6204108775286 619.286878012813 L 991 611 L 970.7297466959791 602.4491619714306 L 970.6204108775286 619.286878012813" fill="none" stroke="#000000" stroke-miterlimit="10"/></g><g transform="translate(-598,-78) scale(1,1)"><path d="M 1295 612 L 1143 611" fill="none" stroke="#000000" stroke-miterlimit="10"/></g><g transform="translate(-598,-78) scale(1,1)"><path d="M 1163.3802970559495 602.7148631929671 L 1143 611 L 1163.2695226701694 619.5525698315469" fill="#FFFFFF" stroke="none"/></g><g transform="translate(-598,-78) scale(1,1)"><path d="M 1163.3802970559495 602.7148631929671 L 1143 611 L 1163.2695226701694 619.5525698315469 L 1163.3802970559495 602.7148631929671" fill="none" stroke="#000000" stroke-miterlimit="10"/></g><g transform="translate(-598,-78) scale(1,1)"><path d="M 738 497 L 736 551" fill="none" stroke="#000000" stroke-miterlimit="10"/></g><g transform="translate(-598,-78) scale(1,1)"><g><path fill="none" stroke="none"/><text fill="#000000" font-family="Arial" font-size="13px" font-style="normal" font-weight="normal" stroke="none" text-decoration="none" x="720.5" y="516.5">1</text></g></g><g transform="translate(-598,-78) scale(1,1)"><g><path fill="none" stroke="none"/><text fill="#000000" font-family="Arial" font-size="13px" font-style="normal" font-weight="normal" stroke="none" text-decoration="none" x="714.5" y="547.5">1..*</text></g></g><g transform="translate(-598,-78) scale(1,1)"><path d="M 1522 321 L 1528 608 L 1481 609" fill="none" stroke="#000000" stroke-miterlimit="10"/></g><g transform="translate(-598,-78) scale(1,1)"><path d="M 1388 665 L 1389 727" fill="none" stroke="#000000" stroke-miterlimit="10"/></g><g transform="translate(-598,-78) scale(1,1)"><g><path fill="none" stroke="none"/><text fill="#000000" font-family="Arial" font-size="13px" font-style="normal" font-weight="normal" stroke="none" text-decoration="none" x="1371.5" y="692.5">1</text></g></g><g transform="translate(-598,-78) scale(1,1)"><g><path fill="none" stroke="none"/><text fill="#000000" font-family="Arial" font-size="13px" font-style="normal" font-weight="normal" stroke="none" text-decoration="none" x="1372.5" y="711.5">1</text></g></g><g transform="translate(-598,-78) scale(1,1)"><path d="M 631 608 L 616 608 L 616 88 L 1520 88 L 1521 207" fill="none" stroke="#000000" stroke-miterlimit="10"/></g><g transform="translate(-598,-78) scale(1,1)"><g><path fill="none" stroke="none"/><text fill="#000000" font-family="Arial" font-size="13px" font-style="normal" font-weight="normal" stroke="none" text-decoration="none" x="607.5" y="628.5">0..*</text></g></g><g transform="translate(-598,-78) scale(1,1)"><g><path fill="none" stroke="none"/><text fill="#000000" font-family="Arial" font-size="13px" font-style="normal" font-weight="normal" stroke="none" text-decoration="none" x="1504.5" y="191.5">1</text></g></g><g transform="translate(-598,-78) scale(1,1)"><path d="M 991 497 L 992 528 L 1392 528 L 1391 559" fill="none" stroke="#000000" stroke-miterlimit="10"/></g><g transform="translate(-598,-78) scale(1,1)"><g><path fill="none" stroke="none"/><text fill="#000000" font-family="Arial" font-size="13px" font-style="normal" font-weight="normal" stroke="none" text-decoration="none" x="975.5" y="525.5">1</text></g></g><g transform="translate(-598,-78) scale(1,1)"><g><path fill="none" stroke="none"/><text fill="#000000" font-family="Arial" font-size="13px" font-style="normal" font-weight="normal" stroke="none" text-decoration="none" x="1369.5" y="542.5">1..*</text></g></g><g transform="translate(-598,-78) scale(1,1)"><path d="M 895 899 L 824 899" fill="none" stroke="#000000" stroke-miterlimit="10"/></g><g transform="translate(-598,-78) scale(1,1)"><path d="M 834.1626748576241 894.790482243984 L 824 899 L 834.1626748576241 903.209517756016 L 846 899" fill="#FFFFFF" stroke="none"/></g><g transform="translate(-598,-78) scale(1,1)"><path d="M 834.1626748576241 894.790482243984 L 824 899 L 834.1626748576241 903.209517756016 L 846 899 L 834.1626748576241 894.790482243984" fill="none" stroke="#000000" stroke-miterlimit="10"/></g><g transform="translate(-598,-78) scale(1,1)"><g><path fill="none" stroke="none"/><text fill="#000000" font-family="Arial" font-size="13px" font-style="normal" font-weight="normal" stroke="none" text-decoration="none" x="823.5" y="883.5">0..3</text></g></g><g transform="translate(-598,-78) scale(1,1)"><g><path fill="none" stroke="none"/><text fill="#000000" font-family="Arial" font-size="13px" font-style="normal" font-weight="normal" stroke="none" text-decoration="none" x="871.5" y="915.5">1</text></g></g><g transform="translate(-598,-78) scale(1,1)"><path d="M 736 670 L 741 823" fill="none" stroke="#000000" stroke-miterlimit="10"/></g><g transform="translate(-598,-78) scale(1,1)"><g><path fill="none" stroke="none"/><text fill="#000000" font-family="Arial" font-size="13px" font-style="normal" font-weight="normal" stroke="none" text-decoration="none" x="720.5" y="698.5">1</text></g></g><g transform="translate(-598,-78) scale(1,1)"><g><path fill="none" stroke="none"/><text fill="#000000" font-family="Arial" font-size="13px" font-style="normal" font-weight="normal" stroke="none" text-decoration="none" x="723.5" y="807.5">1</text></g></g><g transform="translate(-598,-78) scale(1,1)"><rect fill="#C0C0C0" height="192" opacity="0.2" stroke="none" width="192" x="1447" y="863"/></g><g transform="translate(-598,-78) scale(1,1)"><rect fill="#ffffff" height="192" stroke="none" width="192" x="1440" y="856"/></g><g transform="translate(-598,-78) scale(1,1)"><path d="M 1440 856 L 1632 856 L 1632 1048 L 1440 1048 L 1440 856 Z Z" fill="none" stroke="#000000" stroke-miterlimit="10"/></g><g transform="translate(-598,-78) scale(1,1)"><path d="M 1440 894 L 1632 894" fill="none" stroke="#000000" stroke-miterlimit="10"/></g><g transform="translate(-598,-78) scale(1,1)"><g><path fill="none" stroke="none"/><text fill="#000000" font-family="Arial" font-size="13px" font-style="normal" font-weight="normal" stroke="none" text-decoration="none" x="1492.635986328125" y="873.5">«enumeration»</text></g></g><g transform="translate(-598,-78) scale(1,1)"><g><path fill="none" stroke="none"/><text fill="#000000" font-family="Arial" font-size="13px" font-style="normal" font-weight="bold" stroke="none" text-decoration="none" x="1503.119140625" y="888.5">order_state</text></g></g><g transform="translate(-598,-78) scale(1,1)"><g><path fill="none" stroke="none"/><text fill="#000000" font-family="Arial" font-size="13px" font-style="normal" font-weight="normal" stroke="none" text-decoration="none" x="1445" y="911.5">active</text></g></g><g transform="translate(-598,-78) scale(1,1)"><g><path fill="none" stroke="none"/><text fill="#000000" font-family="Arial" font-size="13px" font-style="normal" font-weight="normal" stroke="none" text-decoration="none" x="1445" y="926.5">inactive</text></g></g><g transform="translate(-598,-78) scale(1,1)"><g><path fill="none" stroke="none"/><text fill="#000000" font-family="Arial" font-size="13px" font-style="normal" font-weight="normal" stroke="none" text-decoration="none" x="1445" y="941.5">pending</text></g></g><g transform="translate(-598,-78) scale(1,1)"><g><path fill="none" stroke="none"/><text fill="#000000" font-family="Arial" font-size="13px" font-style="normal" font-weight="normal" stroke="none" text-decoration="none" x="1445" y="956.5">cancelled</text></g></g><g transform="translate(-598,-78) scale(1,1)"><g><path fill="none" stroke="none"/><text fill="#000000" font-family="Arial" font-size="13px" font-style="normal" font-weight="normal" stroke="none" text-decoration="none" x="1445" y="971.5">aborted</text></g></g></g></svg>