<?xml version="1.0" encoding="UTF-8" standalone="no"?><svg xmlns="http://www.w3.org/2000/svg" xmlns:xlink="http://www.w3.org/1999/xlink" height="628" version="1.1" width="1588"><defs/><g><g transform="translate(-38,-174) scale(1,1)"><rect fill="#C0C0C0" height="112" opacity="0.2" stroke="none" width="152" x="391" y="231"/></g><g transform="translate(-38,-174) scale(1,1)"><rect fill="#ffffff" height="112" stroke="none" width="152" x="384" y="224"/></g><g transform="translate(-38,-174) scale(1,1)"><path d="M 384 224 L 536 224 L 536 336 L 384 336 L 384 224 Z Z" fill="none" stroke="#000000" stroke-miterlimit="10"/></g><g transform="translate(-38,-174) scale(1,1)"><path d="M 384 249 L 536 249" fill="none" stroke="#000000" stroke-miterlimit="10"/></g><g transform="translate(-38,-174) scale(1,1)"><path d="M 384 272 L 536 272" fill="none" stroke="#000000" stroke-miterlimit="10"/></g><g transform="translate(-38,-174) scale(1,1)"><g><path fill="none" stroke="none"/><text fill="#000000" font-family="Arial" font-size="13px" font-style="normal" font-weight="bold" stroke="none" text-decoration="none" x="443.385009765625" y="243.5">Order</text></g></g><g transform="translate(-38,-174) scale(1,1)"><g><path fill="none" stroke="none"/><text fill="#000000" font-family="Arial" font-size="13px" font-style="normal" font-weight="normal" stroke="none" text-decoration="none" x="389" y="266.5">+number</text></g></g><g transform="translate(-38,-174) scale(1,1)"><rect fill="#C0C0C0" height="115" opacity="0.2" stroke="none" width="136" x="55" y="231"/></g><g transform="translate(-38,-174) scale(1,1)"><rect fill="#ffffff" height="115" stroke="none" width="136" x="48" y="224"/></g><g transform="translate(-38,-174) scale(1,1)"><path d="M 48 224 L 184 224 L 184 339 L 48 339 L 48 224 Z Z" fill="none" stroke="#000000" stroke-miterlimit="10"/></g><g transform="translate(-38,-174) scale(1,1)"><path d="M 51 224 L 51 339" fill="none" stroke="#000000" stroke-miterlimit="10"/></g><g transform="translate(-38,-174) scale(1,1)"><path d="M 181 224 L 181 339" fill="none" stroke="#000000" stroke-miterlimit="10"/></g><g transform="translate(-38,-174) scale(1,1)"><path d="M 48 249 L 184 249" fill="none" stroke="#000000" stroke-miterlimit="10"/></g><g transform="translate(-38,-174) scale(1,1)"><path d="M 48 272 L 184 272" fill="none" stroke="#000000" stroke-miterlimit="10"/></g><g transform="translate(-38,-174) scale(1,1)"><g><path fill="none" stroke="none"/><text fill="#000000" font-family="Arial" font-size="13px" font-style="normal" font-weight="bold" stroke="none" text-decoration="none" x="96.128662109375" y="243.5">Socket</text></g></g><g transform="translate(-38,-174) scale(1,1)"><g><path fill="none" stroke="none"/><text fill="#000000" font-family="Arial" font-size="13px" font-style="normal" font-weight="normal" stroke="none" text-decoration="none" x="53" y="266.5">+IPport</text></g></g><g transform="translate(-38,-174) scale(1,1)"><g><path fill="none" stroke="none"/><text fill="#000000" font-family="Arial" font-size="13px" font-style="normal" font-weight="normal" stroke="none" text-decoration="none" x="53" y="289.5">+connect()</text></g></g><g transform="translate(-38,-174) scale(1,1)"><g><path fill="none" stroke="none"/><text fill="#000000" font-family="Arial" font-size="13px" font-style="normal" font-weight="normal" stroke="none" text-decoration="none" x="53" y="304.5">+disconnect()</text></g></g><g transform="translate(-38,-174) scale(1,1)"><rect fill="#C0C0C0" height="102" opacity="0.2" stroke="none" width="120.57177734375" x="255" y="559"/></g><g transform="translate(-38,-174) scale(1,1)"><rect fill="#ffffff" height="102" stroke="none" width="120.57177734375" x="248" y="552"/></g><g transform="translate(-38,-174) scale(1,1)"><path d="M 248 552 L 368.57177734375 552 L 368.57177734375 654 L 248 654 L 248 552 Z Z" fill="none" stroke="#000000" stroke-miterlimit="10"/></g><g transform="translate(-38,-174) scale(1,1)"><path d="M 248 577 L 368.57177734375 577" fill="none" stroke="#000000" stroke-miterlimit="10"/></g><g transform="translate(-38,-174) scale(1,1)"><path d="M 248 645 L 368.57177734375 645" fill="none" stroke="#000000" stroke-miterlimit="10"/></g><g transform="translate(-38,-174) scale(1,1)"><g><path fill="none" stroke="none"/><text fill="#000000" font-family="Arial" font-size="13px" font-style="normal" font-weight="bold" stroke="none" text-decoration="none" x="278.912109375" y="571.5">Transform</text></g></g><g transform="translate(-38,-174) scale(1,1)"><g><path fill="none" stroke="none"/><text fill="#000000" font-family="Arial" font-size="13px" font-style="normal" font-weight="normal" stroke="none" text-decoration="none" x="253" y="594.5">+from</text></g></g><g transform="translate(-38,-174) scale(1,1)"><g><path fill="none" stroke="none"/><text fill="#000000" font-family="Arial" font-size="13px" font-style="normal" font-weight="normal" stroke="none" text-decoration="none" x="253" y="609.5">+to</text></g></g><g transform="translate(-38,-174) scale(1,1)"><g><path fill="none" stroke="none"/><text fill="#000000" font-family="Arial" font-size="13px" font-style="normal" font-weight="normal" stroke="none" text-decoration="none" x="253" y="624.5">+quantity</text></g></g><g transform="translate(-38,-174) scale(1,1)"><g><path fill="none" stroke="none"/><text fill="#000000" font-family="Arial" font-size="13px" font-style="normal" font-weight="normal" stroke="none" text-decoration="none" x="253" y="639.5">+maxdelay</text></g></g><g transform="translate(-38,-174) scale(1,1)"><path d="M 308 552 L 308 452 L 460 452 L 460 336" fill="none" stroke="#000000" stroke-miterlimit="10"/></g><g transform="translate(-38,-174) scale(1,1)"><path d="M 468.419035512032 356.3253497152483 L 460 336 L 451.580964487968 356.3253497152483" fill="#FFFFFF" stroke="none"/></g><g transform="translate(-38,-174) scale(1,1)"><path d="M 468.419035512032 356.3253497152483 L 460 336 L 451.580964487968 356.3253497152483 L 468.419035512032 356.3253497152483" fill="none" stroke="#000000" stroke-miterlimit="10"/></g><g transform="translate(-38,-174) scale(1,1)"><rect fill="#C0C0C0" height="104" opacity="0.2" stroke="none" width="104" x="415" y="559"/></g><g transform="translate(-38,-174) scale(1,1)"><rect fill="#ffffff" height="104" stroke="none" width="104" x="408" y="552"/></g><g transform="translate(-38,-174) scale(1,1)"><path d="M 408 552 L 512 552 L 512 656 L 408 656 L 408 552 Z Z" fill="none" stroke="#000000" stroke-miterlimit="10"/></g><g transform="translate(-38,-174) scale(1,1)"><path d="M 408 577 L 512 577" fill="none" stroke="#000000" stroke-miterlimit="10"/></g><g transform="translate(-38,-174) scale(1,1)"><path d="M 408 630 L 512 630" fill="none" stroke="#000000" stroke-miterlimit="10"/></g><g transform="translate(-38,-174) scale(1,1)"><g><path fill="none" stroke="none"/><text fill="#000000" font-family="Arial" font-size="13px" font-style="normal" font-weight="bold" stroke="none" text-decoration="none" x="439.40185546875" y="571.5">Unload</text></g></g><g transform="translate(-38,-174) scale(1,1)"><g><path fill="none" stroke="none"/><text fill="#000000" font-family="Arial" font-size="13px" font-style="normal" font-weight="normal" stroke="none" text-decoration="none" x="413" y="594.5">+type</text></g></g><g transform="translate(-38,-174) scale(1,1)"><g><path fill="none" stroke="none"/><text fill="#000000" font-family="Arial" font-size="13px" font-style="normal" font-weight="normal" stroke="none" text-decoration="none" x="413" y="609.5">+destination</text></g></g><g transform="translate(-38,-174) scale(1,1)"><g><path fill="none" stroke="none"/><text fill="#000000" font-family="Arial" font-size="13px" font-style="normal" font-weight="normal" stroke="none" text-decoration="none" x="413" y="624.5">+quantity</text></g></g><g transform="translate(-38,-174) scale(1,1)"><rect fill="#C0C0C0" height="104" opacity="0.2" stroke="none" width="96" x="559" y="559"/></g><g transform="translate(-38,-174) scale(1,1)"><rect fill="#ffffff" height="104" stroke="none" width="96" x="552" y="552"/></g><g transform="translate(-38,-174) scale(1,1)"><path d="M 552 552 L 648 552 L 648 656 L 552 656 L 552 552 Z Z" fill="none" stroke="#000000" stroke-miterlimit="10"/></g><g transform="translate(-38,-174) scale(1,1)"><path d="M 552 577 L 648 577" fill="none" stroke="#000000" stroke-miterlimit="10"/></g><g transform="translate(-38,-174) scale(1,1)"><path d="M 552 587 L 648 587" fill="none" stroke="#000000" stroke-miterlimit="10"/></g><g transform="translate(-38,-174) scale(1,1)"><g><path fill="none" stroke="none"/><text fill="#000000" font-family="Arial" font-size="13px" font-style="normal" font-weight="bold" stroke="none" text-decoration="none" x="583.74365234375" y="571.5">Stock</text></g></g><g transform="translate(-38,-174) scale(1,1)"><path d="M 460 552 L 460 336" fill="none" stroke="#000000" stroke-miterlimit="10"/></g><g transform="translate(-38,-174) scale(1,1)"><path d="M 468.419035512032 356.3253497152483 L 460 336 L 451.580964487968 356.3253497152483" fill="#FFFFFF" stroke="none"/></g><g transform="translate(-38,-174) scale(1,1)"><path d="M 468.419035512032 356.3253497152483 L 460 336 L 451.580964487968 356.3253497152483 L 468.419035512032 356.3253497152483" fill="none" stroke="#000000" stroke-miterlimit="10"/></g><g transform="translate(-38,-174) scale(1,1)"><path d="M 600 552 L 600 452 L 460 452 L 460 336" fill="none" stroke="#000000" stroke-miterlimit="10"/></g><g transform="translate(-38,-174) scale(1,1)"><path d="M 468.419035512032 356.3253497152483 L 460 336 L 451.580964487968 356.3253497152483" fill="#FFFFFF" stroke="none"/></g><g transform="translate(-38,-174) scale(1,1)"><path d="M 468.419035512032 356.3253497152483 L 460 336 L 451.580964487968 356.3253497152483 L 468.419035512032 356.3253497152483" fill="none" stroke="#000000" stroke-miterlimit="10"/></g><g transform="translate(-38,-174) scale(1,1)"><rect fill="#C0C0C0" height="160" opacity="0.2" stroke="none" width="136" x="767" y="207"/></g><g transform="translate(-38,-174) scale(1,1)"><rect fill="#ffffff" height="160" stroke="none" width="136" x="760" y="200"/></g><g transform="translate(-38,-174) scale(1,1)"><path d="M 760 200 L 896 200 L 896 360 L 760 360 L 760 200 Z Z" fill="none" stroke="#000000" stroke-miterlimit="10"/></g><g transform="translate(-38,-174) scale(1,1)"><path d="M 763 200 L 763 360" fill="none" stroke="#000000" stroke-miterlimit="10"/></g><g transform="translate(-38,-174) scale(1,1)"><path d="M 893 200 L 893 360" fill="none" stroke="#000000" stroke-miterlimit="10"/></g><g transform="translate(-38,-174) scale(1,1)"><path d="M 760 225 L 896 225" fill="none" stroke="#000000" stroke-miterlimit="10"/></g><g transform="translate(-38,-174) scale(1,1)"><path d="M 760 278 L 896 278" fill="none" stroke="#000000" stroke-miterlimit="10"/></g><g transform="translate(-38,-174) scale(1,1)"><g><path fill="none" stroke="none"/><text fill="#000000" font-family="Arial" font-size="13px" font-style="normal" font-weight="bold" stroke="none" text-decoration="none" x="792.5927734375" y="219.5">DB_Handler</text></g></g><g transform="translate(-38,-174) scale(1,1)"><g><path fill="none" stroke="none"/><text fill="#000000" font-family="Arial" font-size="13px" font-style="normal" font-weight="normal" stroke="none" text-decoration="none" x="765" y="242.5">+hostname</text></g></g><g transform="translate(-38,-174) scale(1,1)"><g><path fill="none" stroke="none"/><text fill="#000000" font-family="Arial" font-size="13px" font-style="normal" font-weight="normal" stroke="none" text-decoration="none" x="765" y="257.5">-user</text></g></g><g transform="translate(-38,-174) scale(1,1)"><g><path fill="none" stroke="none"/><text fill="#000000" font-family="Arial" font-size="13px" font-style="normal" font-weight="normal" stroke="none" text-decoration="none" x="765" y="272.5">-password</text></g></g><g transform="translate(-38,-174) scale(1,1)"><g><path fill="none" stroke="none"/><text fill="#000000" font-family="Arial" font-size="13px" font-style="normal" font-weight="normal" stroke="none" text-decoration="none" x="765" y="295.5">+connect()</text></g></g><g transform="translate(-38,-174) scale(1,1)"><g><path fill="none" stroke="none"/><text fill="#000000" font-family="Arial" font-size="13px" font-style="normal" font-weight="normal" stroke="none" text-decoration="none" x="765" y="310.5">+disconnect()</text></g></g><g transform="translate(-38,-174) scale(1,1)"><g><path fill="none" stroke="none"/><text fill="#000000" font-family="Arial" font-size="13px" font-style="normal" font-weight="normal" stroke="none" text-decoration="none" x="765" y="325.5">+addOrders()</text></g></g><g transform="translate(-38,-174) scale(1,1)"><g><path fill="none" stroke="none"/><text fill="#000000" font-family="Arial" font-size="13px" font-style="normal" font-weight="normal" stroke="none" text-decoration="none" x="765" y="340.5">+updateOrders()</text></g></g><g transform="translate(-38,-174) scale(1,1)"><g><path fill="none" stroke="none"/><text fill="#000000" font-family="Arial" font-size="13px" font-style="normal" font-weight="normal" stroke="none" text-decoration="none" x="765" y="355.5">+UpdateStock()</text></g></g><g transform="translate(-38,-174) scale(1,1)"><rect fill="#C0C0C0" height="184" opacity="0.2" stroke="none" width="176" x="1007" y="191"/></g><g transform="translate(-38,-174) scale(1,1)"><rect fill="#ffffff" height="184" stroke="none" width="176" x="1000" y="184"/></g><g transform="translate(-38,-174) scale(1,1)"><path d="M 1000 184 L 1176 184 L 1176 368 L 1000 368 L 1000 184 Z Z" fill="none" stroke="#000000" stroke-miterlimit="10"/></g><g transform="translate(-38,-174) scale(1,1)"><path d="M 1003 184 L 1003 368" fill="none" stroke="#000000" stroke-miterlimit="10"/></g><g transform="translate(-38,-174) scale(1,1)"><path d="M 1173 184 L 1173 368" fill="none" stroke="#000000" stroke-miterlimit="10"/></g><g transform="translate(-38,-174) scale(1,1)"><path d="M 1000 209 L 1176 209" fill="none" stroke="#000000" stroke-miterlimit="10"/></g><g transform="translate(-38,-174) scale(1,1)"><path d="M 1000 219 L 1176 219" fill="none" stroke="#000000" stroke-miterlimit="10"/></g><g transform="translate(-38,-174) scale(1,1)"><g><path fill="none" stroke="none"/><text fill="#000000" font-family="Arial" font-size="13px" font-style="normal" font-weight="bold" stroke="none" text-decoration="none" x="1060.19091796875" y="203.5">Optimizer</text></g></g><g transform="translate(-38,-174) scale(1,1)"><g><path fill="none" stroke="none"/><text fill="#000000" font-family="Arial" font-size="13px" font-style="normal" font-weight="normal" stroke="none" text-decoration="none" x="1005" y="236.5">+calculatePaths()</text></g></g><g transform="translate(-38,-174) scale(1,1)"><g><path fill="none" stroke="none"/><text fill="#000000" font-family="Arial" font-size="13px" font-style="normal" font-weight="normal" stroke="none" text-decoration="none" x="1005" y="251.5">+pollActiveOrders()</text></g></g><g transform="translate(-38,-174) scale(1,1)"><g><path fill="none" stroke="none"/><text fill="#000000" font-family="Arial" font-size="13px" font-style="normal" font-weight="normal" stroke="none" text-decoration="none" x="1005" y="266.5">+getFactoryState()</text></g></g><g transform="translate(-38,-174) scale(1,1)"><path d="M 185 281 L 383 280" fill="none" stroke="#000000" stroke-miterlimit="10"/></g><g transform="translate(-38,-174) scale(1,1)"><path d="M 372.85871467216924 284.26079005579066 L 383 280 L 372.81619483308145 275.84186191640504" fill="none" stroke="#000000" stroke-miterlimit="10"/></g><g transform="translate(-38,-174) scale(1,1)"><g><path fill="none" stroke="none"/><text fill="#000000" font-family="Arial" font-size="13px" font-style="normal" font-weight="normal" stroke="none" text-decoration="none" x="237.5" y="271.5">+receive_orders</text></g></g><g transform="translate(-38,-174) scale(1,1)"><g><path fill="none" stroke="none"/><text fill="#000000" font-family="Arial" font-size="13px" font-style="normal" font-weight="normal" stroke="none" text-decoration="none" x="202.5" y="299.5">1</text></g></g><g transform="translate(-38,-174) scale(1,1)"><g><path fill="none" stroke="none"/><text fill="#000000" font-family="Arial" font-size="13px" font-style="normal" font-weight="normal" stroke="none" text-decoration="none" x="358.5" y="298.5">*</text></g></g><g transform="translate(-38,-174) scale(1,1)"><rect fill="#C0C0C0" height="152" opacity="0.2" stroke="none" width="162.51904296875" x="1023" y="607"/></g><g transform="translate(-38,-174) scale(1,1)"><rect fill="#ffffff" height="152" stroke="none" width="162.51904296875" x="1016" y="600"/></g><g transform="translate(-38,-174) scale(1,1)"><path d="M 1016 600 L 1178.51904296875 600 L 1178.51904296875 752 L 1016 752 L 1016 600 Z Z" fill="none" stroke="#000000" stroke-miterlimit="10"/></g><g transform="translate(-38,-174) scale(1,1)"><path d="M 1019 600 L 1019 752" fill="none" stroke="#000000" stroke-miterlimit="10"/></g><g transform="translate(-38,-174) scale(1,1)"><path d="M 1175.51904296875 600 L 1175.51904296875 752" fill="none" stroke="#000000" stroke-miterlimit="10"/></g><g transform="translate(-38,-174) scale(1,1)"><path d="M 1016 625 L 1178.51904296875 625" fill="none" stroke="#000000" stroke-miterlimit="10"/></g><g transform="translate(-38,-174) scale(1,1)"><path d="M 1016 635 L 1178.51904296875 635" fill="none" stroke="#000000" stroke-miterlimit="10"/></g><g transform="translate(-38,-174) scale(1,1)"><g><path fill="none" stroke="none"/><text fill="#000000" font-family="Arial" font-size="13px" font-style="normal" font-weight="bold" stroke="none" text-decoration="none" x="1047.77001953125" y="619.5">OPC_UA_Server</text></g></g><g transform="translate(-38,-174) scale(1,1)"><g><path fill="none" stroke="none"/><text fill="#000000" font-family="Arial" font-size="13px" font-style="normal" font-weight="normal" stroke="none" text-decoration="none" x="1021" y="652.5">+sendCommands()</text></g></g><g transform="translate(-38,-174) scale(1,1)"><path d="M 537 280 L 759 280" fill="none" stroke="#000000" stroke-miterlimit="10"/></g><g transform="translate(-38,-174) scale(1,1)"><path d="M 748.8373251423759 284.209517756016 L 759 280 L 748.8373251423758 275.790482243984" fill="none" stroke="#000000" stroke-miterlimit="10"/></g><g transform="translate(-38,-174) scale(1,1)"><g><path fill="none" stroke="none"/><text fill="#000000" font-family="Arial" font-size="13px" font-style="normal" font-weight="normal" stroke="none" text-decoration="none" x="609.5" y="271.5">+stores using</text></g></g><g transform="translate(-38,-174) scale(1,1)"><g><path fill="none" stroke="none"/><text fill="#000000" font-family="Arial" font-size="13px" font-style="normal" font-weight="normal" stroke="none" text-decoration="none" x="548.5" y="298.5">0..*</text></g></g><g transform="translate(-38,-174) scale(1,1)"><g><path fill="none" stroke="none"/><text fill="#000000" font-family="Arial" font-size="13px" font-style="normal" font-weight="normal" stroke="none" text-decoration="none" x="733.5" y="298.5">1</text></g></g><g transform="translate(-38,-174) scale(1,1)"><rect fill="#C0C0C0" height="104" opacity="0.2" stroke="none" width="124.603515625" x="1415" y="439"/></g><g transform="translate(-38,-174) scale(1,1)"><rect fill="#ffffff" height="104" stroke="none" width="124.603515625" x="1408" y="432"/></g><g transform="translate(-38,-174) scale(1,1)"><path d="M 1408 432 L 1532.603515625 432 L 1532.603515625 536 L 1408 536 L 1408 432 Z Z" fill="none" stroke="#000000" stroke-miterlimit="10"/></g><g transform="translate(-38,-174) scale(1,1)"><path d="M 1408 457 L 1532.603515625 457" fill="none" stroke="#000000" stroke-miterlimit="10"/></g><g transform="translate(-38,-174) scale(1,1)"><path d="M 1408 467 L 1532.603515625 467" fill="none" stroke="#000000" stroke-miterlimit="10"/></g><g transform="translate(-38,-174) scale(1,1)"><g><path fill="none" stroke="none"/><text fill="#000000" font-family="Arial" font-size="13px" font-style="normal" font-weight="bold" stroke="none" text-decoration="none" x="1440.318603515625" y="451.5">Command</text></g></g><g transform="translate(-38,-174) scale(1,1)"><path d="M 1090 369 L 1095 599" fill="none" stroke="#000000" stroke-miterlimit="10"/></g><g transform="translate(-38,-174) scale(1,1)"><g><path fill="none" stroke="none"/><text fill="#000000" font-family="Arial" font-size="13px" font-style="normal" font-weight="normal" stroke="none" text-decoration="none" x="1073.5" y="396.5">1</text></g></g><g transform="translate(-38,-174) scale(1,1)"><g><path fill="none" stroke="none"/><text fill="#000000" font-family="Arial" font-size="13px" font-style="normal" font-weight="normal" stroke="none" text-decoration="none" x="1078.5" y="583.5">1</text></g></g><g transform="translate(-38,-174) scale(1,1)"><path d="M 1407 484 L 1092 484" fill="none" stroke="#000000" stroke-dasharray="3" stroke-miterlimit="10"/></g><g transform="translate(-38,-174) scale(1,1)"><path d="M 897 279 L 999 277" fill="none" stroke="#000000" stroke-miterlimit="10"/></g><g transform="translate(-38,-174) scale(1,1)"><path d="M 988.9218018899201 281.4079386173109 L 999 277 L 988.7567544868664 272.99052106157563" fill="none" stroke="#000000" stroke-miterlimit="10"/></g><g transform="translate(-38,-174) scale(1,1)"><g><path fill="none" stroke="none"/><text fill="#000000" font-family="Arial" font-size="13px" font-style="normal" font-weight="normal" stroke="none" text-decoration="none" x="914.5" y="297.5">1</text></g></g><g transform="translate(-38,-174) scale(1,1)"><g><path fill="none" stroke="none"/><text fill="#000000" font-family="Arial" font-size="13px" font-style="normal" font-weight="normal" stroke="none" text-decoration="none" x="973.5" y="295.5">1</text></g></g><g transform="translate(-38,-174) scale(1,1)"><rect fill="#C0C0C0" height="72" opacity="0.2" stroke="none" width="106.53173828125" x="1303" y="727"/></g><g transform="translate(-38,-174) scale(1,1)"><rect fill="#ffffff" height="72" stroke="none" width="106.53173828125" x="1296" y="720"/></g><g transform="translate(-38,-174) scale(1,1)"><path d="M 1296 720 L 1402.53173828125 720 L 1402.53173828125 792 L 1296 792 L 1296 720 Z Z" fill="none" stroke="#000000" stroke-miterlimit="10"/></g><g transform="translate(-38,-174) scale(1,1)"><path d="M 1296 745 L 1402.53173828125 745" fill="none" stroke="#000000" stroke-miterlimit="10"/></g><g transform="translate(-38,-174) scale(1,1)"><path d="M 1296 783 L 1402.53173828125 783" fill="none" stroke="#000000" stroke-miterlimit="10"/></g><g transform="translate(-38,-174) scale(1,1)"><g><path fill="none" stroke="none"/><text fill="#000000" font-family="Arial" font-size="13px" font-style="normal" font-weight="bold" stroke="none" text-decoration="none" x="1304.10546875" y="739.5">BlockGenerator</text></g></g><g transform="translate(-38,-174) scale(1,1)"><g><path fill="none" stroke="none"/><text fill="#000000" font-family="Arial" font-size="13px" font-style="normal" font-weight="normal" stroke="none" text-decoration="none" x="1301" y="762.5">+id</text></g></g><g transform="translate(-38,-174) scale(1,1)"><g><path fill="none" stroke="none"/><text fill="#000000" font-family="Arial" font-size="13px" font-style="normal" font-weight="normal" stroke="none" text-decoration="none" x="1301" y="777.5">+path</text></g></g><g transform="translate(-38,-174) scale(1,1)"><rect fill="#C0C0C0" height="72" opacity="0.2" stroke="none" width="96" x="1527" y="727"/></g><g transform="translate(-38,-174) scale(1,1)"><rect fill="#ffffff" height="72" stroke="none" width="96" x="1520" y="720"/></g><g transform="translate(-38,-174) scale(1,1)"><path d="M 1520 720 L 1616 720 L 1616 792 L 1520 792 L 1520 720 Z Z" fill="none" stroke="#000000" stroke-miterlimit="10"/></g><g transform="translate(-38,-174) scale(1,1)"><path d="M 1520 745 L 1616 745" fill="none" stroke="#000000" stroke-miterlimit="10"/></g><g transform="translate(-38,-174) scale(1,1)"><path d="M 1520 783 L 1616 783" fill="none" stroke="#000000" stroke-miterlimit="10"/></g><g transform="translate(-38,-174) scale(1,1)"><g><path fill="none" stroke="none"/><text fill="#000000" font-family="Arial" font-size="13px" font-style="normal" font-weight="bold" stroke="none" text-decoration="none" x="1528.9873046875" y="739.5">BlockModifier</text></g></g><g transform="translate(-38,-174) scale(1,1)"><g><path fill="none" stroke="none"/><text fill="#000000" font-family="Arial" font-size="13px" font-style="normal" font-weight="normal" stroke="none" text-decoration="none" x="1525" y="762.5">+id</text></g></g><g transform="translate(-38,-174) scale(1,1)"><g><path fill="none" stroke="none"/><text fill="#000000" font-family="Arial" font-size="13px" font-style="normal" font-weight="normal" stroke="none" text-decoration="none" x="1525" y="777.5">+new_path</text></g></g><g transform="translate(-38,-174) scale(1,1)"><path d="M 1357 720 L 1357 632 L 1470 632 L 1470 536" fill="none" stroke="#000000" stroke-miterlimit="10"/></g><g transform="translate(-38,-174) scale(1,1)"><path d="M 1478.419035512032 556.3253497152483 L 1470 536 L 1461.580964487968 556.3253497152483" fill="#FFFFFF" stroke="none"/></g><g transform="translate(-38,-174) scale(1,1)"><path d="M 1478.419035512032 556.3253497152483 L 1470 536 L 1461.580964487968 556.3253497152483 L 1478.419035512032 556.3253497152483" fill="none" stroke="#000000" stroke-miterlimit="10"/></g><g transform="translate(-38,-174) scale(1,1)"><path d="M 1568 720 L 1568 632 L 1470 632 L 1470 536" fill="none" stroke="#000000" stroke-miterlimit="10"/></g><g transform="translate(-38,-174) scale(1,1)"><path d="M 1478.419035512032 556.3253497152483 L 1470 536 L 1461.580964487968 556.3253497152483" fill="#FFFFFF" stroke="none"/></g><g transform="translate(-38,-174) scale(1,1)"><path d="M 1478.419035512032 556.3253497152483 L 1470 536 L 1461.580964487968 556.3253497152483 L 1478.419035512032 556.3253497152483" fill="none" stroke="#000000" stroke-miterlimit="10"/></g><g transform="translate(-38,-174) scale(1,1)"><path d="M 1015 675 L 824 672 L 827 361" fill="none" stroke="#000000" stroke-miterlimit="10"/></g><g transform="translate(-38,-174) scale(1,1)"><path d="M 831.1112942467893 371.2028064578486 L 827 361 L 822.6926504078793 371.1215976748366" fill="none" stroke="#000000" stroke-miterlimit="10"/></g><g transform="translate(-38,-174) scale(1,1)"><g><path fill="none" stroke="none"/><text fill="#000000" font-family="Arial" font-size="13px" font-style="normal" font-weight="normal" stroke="none" text-decoration="none" x="814.5" y="691.5">+upload_state</text></g></g><g transform="translate(-38,-174) scale(1,1)"><g><path fill="none" stroke="none"/><text fill="#000000" font-family="Arial" font-size="13px" font-style="normal" font-weight="normal" stroke="none" text-decoration="none" x="989.5" y="668.5">1</text></g></g><g transform="translate(-38,-174) scale(1,1)"><g><path fill="none" stroke="none"/><text fill="#000000" font-family="Arial" font-size="13px" font-style="normal" font-weight="normal" stroke="none" text-decoration="none" x="835.5" y="388.5">1</text></g></g></g></svg>