<?xml version="1.0" encoding="UTF-8" standalone="no"?><svg xmlns="http://www.w3.org/2000/svg" xmlns:xlink="http://www.w3.org/1999/xlink" height="522" version="1.1" width="1190.919921875"><defs/><g><g transform="translate(-38,-54) scale(1,1)"><rect fill="#C0C0C0" height="104" opacity="0.2" stroke="none" width="96" x="279" y="159"/></g><g transform="translate(-38,-54) scale(1,1)"><rect fill="#ffffff" height="104" stroke="none" width="96" x="272" y="152"/></g><g transform="translate(-38,-54) scale(1,1)"><path d="M 272 152 L 368 152 L 368 256 L 272 256 L 272 152 Z Z" fill="none" stroke="#000000" stroke-miterlimit="10"/></g><g transform="translate(-38,-54) scale(1,1)"><path d="M 275 152 L 275 256" fill="none" stroke="#000000" stroke-miterlimit="10"/></g><g transform="translate(-38,-54) scale(1,1)"><path d="M 365 152 L 365 256" fill="none" stroke="#000000" stroke-miterlimit="10"/></g><g transform="translate(-38,-54) scale(1,1)"><path d="M 272 177 L 368 177" fill="none" stroke="#000000" stroke-miterlimit="10"/></g><g transform="translate(-38,-54) scale(1,1)"><path d="M 272 187 L 368 187" fill="none" stroke="#000000" stroke-miterlimit="10"/></g><g transform="translate(-38,-54) scale(1,1)"><g><path fill="none" stroke="none"/><text fill="#000000" font-family="Arial" font-size="13px" font-style="normal" font-weight="bold" stroke="none" text-decoration="none" x="298.3291015625" y="171.5">Factory</text></g></g><g transform="translate(-38,-54) scale(1,1)"><g><path fill="none" stroke="none"/><text fill="#000000" font-family="Arial" font-size="13px" font-style="normal" font-weight="normal" stroke="none" text-decoration="none" x="277" y="204.5">+Start()</text></g></g><g transform="translate(-38,-54) scale(1,1)"><g><path fill="none" stroke="none"/><text fill="#000000" font-family="Arial" font-size="13px" font-style="normal" font-weight="normal" stroke="none" text-decoration="none" x="277" y="219.5">+Stop()</text></g></g><g transform="translate(-38,-54) scale(1,1)"><g><path fill="none" stroke="none"/><text fill="#000000" font-family="Arial" font-size="13px" font-style="normal" font-weight="normal" stroke="none" text-decoration="none" x="277" y="234.5">+DelPiece()</text></g></g><g transform="translate(-38,-54) scale(1,1)"><g><path fill="none" stroke="none"/><text fill="#000000" font-family="Arial" font-size="13px" font-style="normal" font-weight="normal" stroke="none" text-decoration="none" x="277" y="249.5">+AddPiece()</text></g></g><g transform="translate(-38,-54) scale(1,1)"><rect fill="#C0C0C0" height="72" opacity="0.2" stroke="none" width="149.54345703125" x="679" y="175"/></g><g transform="translate(-38,-54) scale(1,1)"><rect fill="#ffffff" height="72" stroke="none" width="149.54345703125" x="672" y="168"/></g><g transform="translate(-38,-54) scale(1,1)"><path d="M 672 168 L 821.54345703125 168 L 821.54345703125 240 L 672 240 L 672 168 Z Z" fill="none" stroke="#000000" stroke-miterlimit="10"/></g><g transform="translate(-38,-54) scale(1,1)"><path d="M 672 193 L 821.54345703125 193" fill="none" stroke="#000000" stroke-miterlimit="10"/></g><g transform="translate(-38,-54) scale(1,1)"><path d="M 672 231 L 821.54345703125 231" fill="none" stroke="#000000" stroke-miterlimit="10"/></g><g transform="translate(-38,-54) scale(1,1)"><g><path fill="none" stroke="none"/><text fill="#000000" font-family="Arial" font-size="13px" font-style="normal" font-weight="bold" stroke="none" text-decoration="none" x="733.400390625" y="187.5">Path</text></g></g><g transform="translate(-38,-54) scale(1,1)"><g><path fill="none" stroke="none"/><text fill="#000000" font-family="Arial" font-size="13px" font-style="normal" font-weight="normal" stroke="none" text-decoration="none" x="677" y="210.5">+Path/Operations: struct</text></g></g><g transform="translate(-38,-54) scale(1,1)"><g><path fill="none" stroke="none"/><text fill="#000000" font-family="Arial" font-size="13px" font-style="normal" font-weight="normal" stroke="none" text-decoration="none" x="677" y="225.5">+PathSize: int</text></g></g><g transform="translate(-38,-54) scale(1,1)"><rect fill="#C0C0C0" height="85" opacity="0.2" stroke="none" width="120.642578125" x="439" y="167"/></g><g transform="translate(-38,-54) scale(1,1)"><rect fill="#ffffff" height="85" stroke="none" width="120.642578125" x="432" y="160"/></g><g transform="translate(-38,-54) scale(1,1)"><path d="M 432 160 L 552.642578125 160 L 552.642578125 245 L 432 245 L 432 160 Z Z" fill="none" stroke="#000000" stroke-miterlimit="10"/></g><g transform="translate(-38,-54) scale(1,1)"><path d="M 432 185 L 552.642578125 185" fill="none" stroke="#000000" stroke-miterlimit="10"/></g><g transform="translate(-38,-54) scale(1,1)"><path d="M 432 223 L 552.642578125 223" fill="none" stroke="#000000" stroke-miterlimit="10"/></g><g transform="translate(-38,-54) scale(1,1)"><g><path fill="none" stroke="none"/><text fill="#000000" font-family="Arial" font-size="13px" font-style="normal" font-weight="bold" stroke="none" text-decoration="none" x="476.061767578125" y="179.5">Piece</text></g></g><g transform="translate(-38,-54) scale(1,1)"><g><path fill="none" stroke="none"/><text fill="#000000" font-family="Arial" font-size="13px" font-style="normal" font-weight="normal" stroke="none" text-decoration="none" x="437" y="202.5">+ID: int</text></g></g><g transform="translate(-38,-54) scale(1,1)"><g><path fill="none" stroke="none"/><text fill="#000000" font-family="Arial" font-size="13px" font-style="normal" font-weight="normal" stroke="none" text-decoration="none" x="437" y="217.5">+PieceType: int</text></g></g><g transform="translate(-38,-54) scale(1,1)"><g><path fill="none" stroke="none"/><text fill="#000000" font-family="Arial" font-size="13px" font-style="normal" font-weight="normal" stroke="none" text-decoration="none" x="437" y="240.5">+UpdatePath()</text></g></g><g transform="translate(-38,-54) scale(1,1)"><rect fill="#C0C0C0" height="57" opacity="0.2" stroke="none" width="122.07080078125" x="271" y="335"/></g><g transform="translate(-38,-54) scale(1,1)"><rect fill="#ffffff" height="57" stroke="none" width="122.07080078125" x="264" y="328"/></g><g transform="translate(-38,-54) scale(1,1)"><path d="M 264 328 L 386.07080078125 328 L 386.07080078125 385 L 264 385 L 264 328 Z Z" fill="none" stroke="#000000" stroke-miterlimit="10"/></g><g transform="translate(-38,-54) scale(1,1)"><path d="M 264 353 L 386.07080078125 353" fill="none" stroke="#000000" stroke-miterlimit="10"/></g><g transform="translate(-38,-54) scale(1,1)"><path d="M 264 376 L 386.07080078125 376" fill="none" stroke="#000000" stroke-miterlimit="10"/></g><g transform="translate(-38,-54) scale(1,1)"><g><path fill="none" stroke="none"/><text fill="#000000" font-family="Arial" font-size="13px" font-style="normal" font-weight="bold" stroke="none" text-decoration="none" x="313.838134765625" y="347.5">Cell</text></g></g><g transform="translate(-38,-54) scale(1,1)"><g><path fill="none" stroke="none"/><text fill="#000000" font-family="Arial" font-size="13px" font-style="normal" font-weight="normal" stroke="none" text-decoration="none" x="269" y="370.5">+ConveyerID: array</text></g></g><g transform="translate(-38,-54) scale(1,1)"><rect fill="#C0C0C0" height="70" opacity="0.2" stroke="none" width="120.642578125" x="55" y="503"/></g><g transform="translate(-38,-54) scale(1,1)"><rect fill="#ffffff" height="70" stroke="none" width="120.642578125" x="48" y="496"/></g><g transform="translate(-38,-54) scale(1,1)"><path d="M 48 496 L 168.642578125 496 L 168.642578125 566 L 48 566 L 48 496 Z Z" fill="none" stroke="#000000" stroke-miterlimit="10"/></g><g transform="translate(-38,-54) scale(1,1)"><path d="M 48 521 L 168.642578125 521" fill="none" stroke="#000000" stroke-miterlimit="10"/></g><g transform="translate(-38,-54) scale(1,1)"><path d="M 48 544 L 168.642578125 544" fill="none" stroke="#000000" stroke-miterlimit="10"/></g><g transform="translate(-38,-54) scale(1,1)"><g><path fill="none" stroke="none"/><text fill="#000000" font-family="Arial" font-size="13px" font-style="normal" font-weight="bold" stroke="none" text-decoration="none" x="75.322998046875" y="515.5">Warehouse</text></g></g><g transform="translate(-38,-54) scale(1,1)"><g><path fill="none" stroke="none"/><text fill="#000000" font-family="Arial" font-size="13px" font-style="normal" font-weight="normal" stroke="none" text-decoration="none" x="53" y="538.5">+Inventory: array</text></g></g><g transform="translate(-38,-54) scale(1,1)"><g><path fill="none" stroke="none"/><text fill="#000000" font-family="Arial" font-size="13px" font-style="normal" font-weight="normal" stroke="none" text-decoration="none" x="53" y="561.5">+UpdateInventory()</text></g></g><g transform="translate(-38,-54) scale(1,1)"><rect fill="#C0C0C0" height="44" opacity="0.2" stroke="none" width="103.62451171875" x="319" y="503"/></g><g transform="translate(-38,-54) scale(1,1)"><rect fill="#ffffff" height="44" stroke="none" width="103.62451171875" x="312" y="496"/></g><g transform="translate(-38,-54) scale(1,1)"><path d="M 312 496 L 415.62451171875 496 L 415.62451171875 540 L 312 540 L 312 496 Z Z" fill="none" stroke="#000000" stroke-miterlimit="10"/></g><g transform="translate(-38,-54) scale(1,1)"><path d="M 312 521 L 415.62451171875 521" fill="none" stroke="#000000" stroke-miterlimit="10"/></g><g transform="translate(-38,-54) scale(1,1)"><path d="M 312 531 L 415.62451171875 531" fill="none" stroke="#000000" stroke-miterlimit="10"/></g><g transform="translate(-38,-54) scale(1,1)"><g><path fill="none" stroke="none"/><text fill="#000000" font-family="Arial" font-size="13px" font-style="normal" font-weight="bold" stroke="none" text-decoration="none" x="320.343505859375" y="515.5">Transformation</text></g></g><g transform="translate(-38,-54) scale(1,1)"><rect fill="#C0C0C0" height="57" opacity="0.2" stroke="none" width="101.14892578125" x="439" y="503"/></g><g transform="translate(-38,-54) scale(1,1)"><rect fill="#ffffff" height="57" stroke="none" width="101.14892578125" x="432" y="496"/></g><g transform="translate(-38,-54) scale(1,1)"><path d="M 432 496 L 533.14892578125 496 L 533.14892578125 553 L 432 553 L 432 496 Z Z" fill="none" stroke="#000000" stroke-miterlimit="10"/></g><g transform="translate(-38,-54) scale(1,1)"><path d="M 432 521 L 533.14892578125 521" fill="none" stroke="#000000" stroke-miterlimit="10"/></g><g transform="translate(-38,-54) scale(1,1)"><path d="M 432 531 L 533.14892578125 531" fill="none" stroke="#000000" stroke-miterlimit="10"/></g><g transform="translate(-38,-54) scale(1,1)"><g><path fill="none" stroke="none"/><text fill="#000000" font-family="Arial" font-size="13px" font-style="normal" font-weight="bold" stroke="none" text-decoration="none" x="468.114501953125" y="515.5">Load</text></g></g><g transform="translate(-38,-54) scale(1,1)"><g><path fill="none" stroke="none"/><text fill="#000000" font-family="Arial" font-size="13px" font-style="normal" font-weight="normal" stroke="none" text-decoration="none" x="437" y="548.5">+PieceLoaded()</text></g></g><g transform="translate(-38,-54) scale(1,1)"><rect fill="#C0C0C0" height="57" opacity="0.2" stroke="none" width="113.42529296875" x="559" y="503"/></g><g transform="translate(-38,-54) scale(1,1)"><rect fill="#ffffff" height="57" stroke="none" width="113.42529296875" x="552" y="496"/></g><g transform="translate(-38,-54) scale(1,1)"><path d="M 552 496 L 665.42529296875 496 L 665.42529296875 553 L 552 553 L 552 496 Z Z" fill="none" stroke="#000000" stroke-miterlimit="10"/></g><g transform="translate(-38,-54) scale(1,1)"><path d="M 552 521 L 665.42529296875 521" fill="none" stroke="#000000" stroke-miterlimit="10"/></g><g transform="translate(-38,-54) scale(1,1)"><path d="M 552 531 L 665.42529296875 531" fill="none" stroke="#000000" stroke-miterlimit="10"/></g><g transform="translate(-38,-54) scale(1,1)"><g><path fill="none" stroke="none"/><text fill="#000000" font-family="Arial" font-size="13px" font-style="normal" font-weight="bold" stroke="none" text-decoration="none" x="588.114501953125" y="515.5">Unload</text></g></g><g transform="translate(-38,-54) scale(1,1)"><g><path fill="none" stroke="none"/><text fill="#000000" font-family="Arial" font-size="13px" font-style="normal" font-weight="normal" stroke="none" text-decoration="none" x="557" y="548.5">+PieceUnloaded()</text></g></g><g transform="translate(-38,-54) scale(1,1)"><rect fill="#C0C0C0" height="44" opacity="0.2" stroke="none" width="100.00634765625" x="199" y="503"/></g><g transform="translate(-38,-54) scale(1,1)"><rect fill="#ffffff" height="44" stroke="none" width="100.00634765625" x="192" y="496"/></g><g transform="translate(-38,-54) scale(1,1)"><path d="M 192 496 L 292.00634765625 496 L 292.00634765625 540 L 192 540 L 192 496 Z Z" fill="none" stroke="#000000" stroke-miterlimit="10"/></g><g transform="translate(-38,-54) scale(1,1)"><path d="M 192 521 L 292.00634765625 521" fill="none" stroke="#000000" stroke-miterlimit="10"/></g><g transform="translate(-38,-54) scale(1,1)"><path d="M 192 531 L 292.00634765625 531" fill="none" stroke="#000000" stroke-miterlimit="10"/></g><g transform="translate(-38,-54) scale(1,1)"><g><path fill="none" stroke="none"/><text fill="#000000" font-family="Arial" font-size="13px" font-style="normal" font-weight="bold" stroke="none" text-decoration="none" x="200.333984375" y="515.5">Transportation</text></g></g><g transform="translate(-38,-54) scale(1,1)"><rect fill="#C0C0C0" height="100" opacity="0.2" stroke="none" width="110.7529296875" x="927" y="319"/></g><g transform="translate(-38,-54) scale(1,1)"><rect fill="#ffffff" height="100" stroke="none" width="110.7529296875" x="920" y="312"/></g><g transform="translate(-38,-54) scale(1,1)"><path d="M 920 312 L 1030.7529296875 312 L 1030.7529296875 412 L 920 412 L 920 312 Z Z" fill="none" stroke="#000000" stroke-miterlimit="10"/></g><g transform="translate(-38,-54) scale(1,1)"><path d="M 920 337 L 1030.7529296875 337" fill="none" stroke="#000000" stroke-miterlimit="10"/></g><g transform="translate(-38,-54) scale(1,1)"><path d="M 920 360 L 1030.7529296875 360" fill="none" stroke="#000000" stroke-miterlimit="10"/></g><g transform="translate(-38,-54) scale(1,1)"><g><path fill="none" stroke="none"/><text fill="#000000" font-family="Arial" font-size="13px" font-style="normal" font-weight="bold" stroke="none" text-decoration="none" x="947.557861328125" y="331.5">Conveyer</text></g></g><g transform="translate(-38,-54) scale(1,1)"><g><path fill="none" stroke="none"/><text fill="#000000" font-family="Arial" font-size="13px" font-style="normal" font-weight="normal" stroke="none" text-decoration="none" x="925" y="354.5">+ID: int</text></g></g><g transform="translate(-38,-54) scale(1,1)"><g><path fill="none" stroke="none"/><text fill="#000000" font-family="Arial" font-size="13px" font-style="normal" font-weight="normal" stroke="none" text-decoration="none" x="925" y="377.5">+Free()</text></g></g><g transform="translate(-38,-54) scale(1,1)"><g><path fill="none" stroke="none"/><text fill="#000000" font-family="Arial" font-size="13px" font-style="normal" font-weight="normal" stroke="none" text-decoration="none" x="925" y="392.5">+Busy()</text></g></g><g transform="translate(-38,-54) scale(1,1)"><g><path fill="none" stroke="none"/><text fill="#000000" font-family="Arial" font-size="13px" font-style="normal" font-weight="normal" stroke="none" text-decoration="none" x="925" y="407.5">+MovePiece()</text></g></g><g transform="translate(-38,-54) scale(1,1)"><rect fill="#C0C0C0" height="44" opacity="0.2" stroke="none" width="89.57080078125" x="839" y="495"/></g><g transform="translate(-38,-54) scale(1,1)"><rect fill="#ffffff" height="44" stroke="none" width="89.57080078125" x="832" y="488"/></g><g transform="translate(-38,-54) scale(1,1)"><path d="M 832 488 L 921.57080078125 488 L 921.57080078125 532 L 832 532 L 832 488 Z Z" fill="none" stroke="#000000" stroke-miterlimit="10"/></g><g transform="translate(-38,-54) scale(1,1)"><path d="M 832 513 L 921.57080078125 513" fill="none" stroke="#000000" stroke-miterlimit="10"/></g><g transform="translate(-38,-54) scale(1,1)"><path d="M 832 523 L 921.57080078125 523" fill="none" stroke="#000000" stroke-miterlimit="10"/></g><g transform="translate(-38,-54) scale(1,1)"><g><path fill="none" stroke="none"/><text fill="#000000" font-family="Arial" font-size="13px" font-style="normal" font-weight="bold" stroke="none" text-decoration="none" x="858.716796875" y="507.5">Linear</text></g></g><g transform="translate(-38,-54) scale(1,1)"><rect fill="#C0C0C0" height="57" opacity="0.2" stroke="none" width="126.42529296875" x="1039" y="495"/></g><g transform="translate(-38,-54) scale(1,1)"><rect fill="#ffffff" height="57" stroke="none" width="126.42529296875" x="1032" y="488"/></g><g transform="translate(-38,-54) scale(1,1)"><path d="M 1032 488 L 1158.42529296875 488 L 1158.42529296875 545 L 1032 545 L 1032 488 Z Z" fill="none" stroke="#000000" stroke-miterlimit="10"/></g><g transform="translate(-38,-54) scale(1,1)"><path d="M 1032 513 L 1158.42529296875 513" fill="none" stroke="#000000" stroke-miterlimit="10"/></g><g transform="translate(-38,-54) scale(1,1)"><path d="M 1032 536 L 1158.42529296875 536" fill="none" stroke="#000000" stroke-miterlimit="10"/></g><g transform="translate(-38,-54) scale(1,1)"><g><path fill="none" stroke="none"/><text fill="#000000" font-family="Arial" font-size="13px" font-style="normal" font-weight="bold" stroke="none" text-decoration="none" x="1070.64404296875" y="507.5">Machine</text></g></g><g transform="translate(-38,-54) scale(1,1)"><g><path fill="none" stroke="none"/><text fill="#000000" font-family="Arial" font-size="13px" font-style="normal" font-weight="normal" stroke="none" text-decoration="none" x="1037" y="530.5">+MachineType: char</text></g></g><g transform="translate(-38,-54) scale(1,1)"><rect fill="#C0C0C0" height="57" opacity="0.2" stroke="none" width="89.57080078125" x="935" y="495"/></g><g transform="translate(-38,-54) scale(1,1)"><rect fill="#ffffff" height="57" stroke="none" width="89.57080078125" x="928" y="488"/></g><g transform="translate(-38,-54) scale(1,1)"><path d="M 928 488 L 1017.57080078125 488 L 1017.57080078125 545 L 928 545 L 928 488 Z Z" fill="none" stroke="#000000" stroke-miterlimit="10"/></g><g transform="translate(-38,-54) scale(1,1)"><path d="M 928 513 L 1017.57080078125 513" fill="none" stroke="#000000" stroke-miterlimit="10"/></g><g transform="translate(-38,-54) scale(1,1)"><path d="M 928 523 L 1017.57080078125 523" fill="none" stroke="#000000" stroke-miterlimit="10"/></g><g transform="translate(-38,-54) scale(1,1)"><g><path fill="none" stroke="none"/><text fill="#000000" font-family="Arial" font-size="13px" font-style="normal" font-weight="bold" stroke="none" text-decoration="none" x="951.469970703125" y="507.5">Rotator</text></g></g><g transform="translate(-38,-54) scale(1,1)"><g><path fill="none" stroke="none"/><text fill="#000000" font-family="Arial" font-size="13px" font-style="normal" font-weight="normal" stroke="none" text-decoration="none" x="933" y="540.5">+Rotate()</text></g></g><g transform="translate(-38,-54) scale(1,1)"><rect fill="#C0C0C0" height="44" opacity="0.2" stroke="none" width="50.919921875" x="1175" y="495"/></g><g transform="translate(-38,-54) scale(1,1)"><rect fill="#ffffff" height="44" stroke="none" width="50.919921875" x="1168" y="488"/></g><g transform="translate(-38,-54) scale(1,1)"><path d="M 1168 488 L 1218.919921875 488 L 1218.919921875 532 L 1168 532 L 1168 488 Z Z" fill="none" stroke="#000000" stroke-miterlimit="10"/></g><g transform="translate(-38,-54) scale(1,1)"><path d="M 1168 513 L 1218.919921875 513" fill="none" stroke="#000000" stroke-miterlimit="10"/></g><g transform="translate(-38,-54) scale(1,1)"><path d="M 1168 523 L 1218.919921875 523" fill="none" stroke="#000000" stroke-miterlimit="10"/></g><g transform="translate(-38,-54) scale(1,1)"><g><path fill="none" stroke="none"/><text fill="#000000" font-family="Arial" font-size="13px" font-style="normal" font-weight="bold" stroke="none" text-decoration="none" x="1179.00634765625" y="507.5">Slide</text></g></g><g transform="translate(-38,-54) scale(1,1)"><rect fill="#C0C0C0" height="44" opacity="0.2" stroke="none" width="78.58935546875" x="751" y="495"/></g><g transform="translate(-38,-54) scale(1,1)"><rect fill="#ffffff" height="44" stroke="none" width="78.58935546875" x="744" y="488"/></g><g transform="translate(-38,-54) scale(1,1)"><path d="M 744 488 L 822.58935546875 488 L 822.58935546875 532 L 744 532 L 744 488 Z Z" fill="none" stroke="#000000" stroke-miterlimit="10"/></g><g transform="translate(-38,-54) scale(1,1)"><path d="M 744 513 L 822.58935546875 513" fill="none" stroke="#000000" stroke-miterlimit="10"/></g><g transform="translate(-38,-54) scale(1,1)"><path d="M 744 523 L 822.58935546875 523" fill="none" stroke="#000000" stroke-miterlimit="10"/></g><g transform="translate(-38,-54) scale(1,1)"><g><path fill="none" stroke="none"/><text fill="#000000" font-family="Arial" font-size="13px" font-style="normal" font-weight="bold" stroke="none" text-decoration="none" x="750.29638671875" y="507.5">Warehouse</text></g></g><g transform="translate(-38,-54) scale(1,1)"><rect fill="#C0C0C0" height="57" opacity="0.2" stroke="none" width="72.2353515625" x="719" y="71"/></g><g transform="translate(-38,-54) scale(1,1)"><rect fill="#ffffff" height="57" stroke="none" width="72.2353515625" x="712" y="64"/></g><g transform="translate(-38,-54) scale(1,1)"><path d="M 712 64 L 784.2353515625 64 L 784.2353515625 121 L 712 121 L 712 64 Z Z" fill="none" stroke="#000000" stroke-miterlimit="10"/></g><g transform="translate(-38,-54) scale(1,1)"><path d="M 712 89 L 784.2353515625 89" fill="none" stroke="#000000" stroke-miterlimit="10"/></g><g transform="translate(-38,-54) scale(1,1)"><path d="M 712 112 L 784.2353515625 112" fill="none" stroke="#000000" stroke-miterlimit="10"/></g><g transform="translate(-38,-54) scale(1,1)"><g><path fill="none" stroke="none"/><text fill="#000000" font-family="Arial" font-size="13px" font-style="normal" font-weight="bold" stroke="none" text-decoration="none" x="719.572265625" y="83.5">Operation</text></g></g><g transform="translate(-38,-54) scale(1,1)"><g><path fill="none" stroke="none"/><text fill="#000000" font-family="Arial" font-size="13px" font-style="normal" font-weight="normal" stroke="none" text-decoration="none" x="717" y="106.5">+Time</text></g></g><g transform="translate(-38,-54) scale(1,1)"><rect fill="#C0C0C0" height="57" opacity="0.2" stroke="none" width="72.2353515625" x="559" y="71"/></g><g transform="translate(-38,-54) scale(1,1)"><rect fill="#ffffff" height="57" stroke="none" width="72.2353515625" x="552" y="64"/></g><g transform="translate(-38,-54) scale(1,1)"><path d="M 552 64 L 624.2353515625 64 L 624.2353515625 121 L 552 121 L 552 64 Z Z" fill="none" stroke="#000000" stroke-miterlimit="10"/></g><g transform="translate(-38,-54) scale(1,1)"><path d="M 552 89 L 624.2353515625 89" fill="none" stroke="#000000" stroke-miterlimit="10"/></g><g transform="translate(-38,-54) scale(1,1)"><path d="M 552 112 L 624.2353515625 112" fill="none" stroke="#000000" stroke-miterlimit="10"/></g><g transform="translate(-38,-54) scale(1,1)"><g><path fill="none" stroke="none"/><text fill="#000000" font-family="Arial" font-size="13px" font-style="normal" font-weight="bold" stroke="none" text-decoration="none" x="576.193603515625" y="83.5">Tool</text></g></g><g transform="translate(-38,-54) scale(1,1)"><g><path fill="none" stroke="none"/><text fill="#000000" font-family="Arial" font-size="13px" font-style="normal" font-weight="normal" stroke="none" text-decoration="none" x="557" y="106.5">+ToolType</text></g></g><g transform="translate(-38,-54) scale(1,1)"><path d="M 112 496 L 112 450 L 321 450 L 321 385" fill="none" stroke="#000000" stroke-miterlimit="10"/></g><g transform="translate(-38,-54) scale(1,1)"><path d="M 329.419035512032 405.3253497152483 L 321 385 L 312.580964487968 405.3253497152483" fill="#FFFFFF" stroke="none"/></g><g transform="translate(-38,-54) scale(1,1)"><path d="M 329.419035512032 405.3253497152483 L 321 385 L 312.580964487968 405.3253497152483 L 329.419035512032 405.3253497152483" fill="none" stroke="#000000" stroke-miterlimit="10"/></g><g transform="translate(-38,-54) scale(1,1)"><path d="M 240 496 L 240 450 L 321 450 L 321 385" fill="none" stroke="#000000" stroke-miterlimit="10"/></g><g transform="translate(-38,-54) scale(1,1)"><path d="M 329.419035512032 405.3253497152483 L 321 385 L 312.580964487968 405.3253497152483" fill="#FFFFFF" stroke="none"/></g><g transform="translate(-38,-54) scale(1,1)"><path d="M 329.419035512032 405.3253497152483 L 321 385 L 312.580964487968 405.3253497152483 L 329.419035512032 405.3253497152483" fill="none" stroke="#000000" stroke-miterlimit="10"/></g><g transform="translate(-38,-54) scale(1,1)"><path d="M 368 496 L 368 450 L 321 450 L 321 385" fill="none" stroke="#000000" stroke-miterlimit="10"/></g><g transform="translate(-38,-54) scale(1,1)"><path d="M 329.419035512032 405.3253497152483 L 321 385 L 312.580964487968 405.3253497152483" fill="#FFFFFF" stroke="none"/></g><g transform="translate(-38,-54) scale(1,1)"><path d="M 329.419035512032 405.3253497152483 L 321 385 L 312.580964487968 405.3253497152483 L 329.419035512032 405.3253497152483" fill="none" stroke="#000000" stroke-miterlimit="10"/></g><g transform="translate(-38,-54) scale(1,1)"><path d="M 481 496 L 481 450 L 321 450 L 321 385" fill="none" stroke="#000000" stroke-miterlimit="10"/></g><g transform="translate(-38,-54) scale(1,1)"><path d="M 329.419035512032 405.3253497152483 L 321 385 L 312.580964487968 405.3253497152483" fill="#FFFFFF" stroke="none"/></g><g transform="translate(-38,-54) scale(1,1)"><path d="M 329.419035512032 405.3253497152483 L 321 385 L 312.580964487968 405.3253497152483 L 329.419035512032 405.3253497152483" fill="none" stroke="#000000" stroke-miterlimit="10"/></g><g transform="translate(-38,-54) scale(1,1)"><path d="M 600 496 L 600 450 L 321 450 L 321 385" fill="none" stroke="#000000" stroke-miterlimit="10"/></g><g transform="translate(-38,-54) scale(1,1)"><path d="M 329.419035512032 405.3253497152483 L 321 385 L 312.580964487968 405.3253497152483" fill="#FFFFFF" stroke="none"/></g><g transform="translate(-38,-54) scale(1,1)"><path d="M 329.419035512032 405.3253497152483 L 321 385 L 312.580964487968 405.3253497152483 L 329.419035512032 405.3253497152483" fill="none" stroke="#000000" stroke-miterlimit="10"/></g><g transform="translate(-38,-54) scale(1,1)"><path d="M 775 488 L 775 442 L 975 442 L 975 412" fill="none" stroke="#000000" stroke-miterlimit="10"/></g><g transform="translate(-38,-54) scale(1,1)"><path d="M 983.419035512032 432.3253497152483 L 975 412 L 966.580964487968 432.3253497152483" fill="#FFFFFF" stroke="none"/></g><g transform="translate(-38,-54) scale(1,1)"><path d="M 983.419035512032 432.3253497152483 L 975 412 L 966.580964487968 432.3253497152483 L 983.419035512032 432.3253497152483" fill="none" stroke="#000000" stroke-miterlimit="10"/></g><g transform="translate(-38,-54) scale(1,1)"><path d="M 1192 488 L 1192 442 L 975 442 L 975 412" fill="none" stroke="#000000" stroke-miterlimit="10"/></g><g transform="translate(-38,-54) scale(1,1)"><path d="M 983.419035512032 432.3253497152483 L 975 412 L 966.580964487968 432.3253497152483" fill="#FFFFFF" stroke="none"/></g><g transform="translate(-38,-54) scale(1,1)"><path d="M 983.419035512032 432.3253497152483 L 975 412 L 966.580964487968 432.3253497152483 L 983.419035512032 432.3253497152483" fill="none" stroke="#000000" stroke-miterlimit="10"/></g><g transform="translate(-38,-54) scale(1,1)"><path d="M 1096 488 L 1096 442 L 975 442 L 975 412" fill="none" stroke="#000000" stroke-miterlimit="10"/></g><g transform="translate(-38,-54) scale(1,1)"><path d="M 983.419035512032 432.3253497152483 L 975 412 L 966.580964487968 432.3253497152483" fill="#FFFFFF" stroke="none"/></g><g transform="translate(-38,-54) scale(1,1)"><path d="M 983.419035512032 432.3253497152483 L 975 412 L 966.580964487968 432.3253497152483 L 983.419035512032 432.3253497152483" fill="none" stroke="#000000" stroke-miterlimit="10"/></g><g transform="translate(-38,-54) scale(1,1)"><path d="M 976 488 L 976 442 L 975 442 L 975 412" fill="none" stroke="#000000" stroke-miterlimit="10"/></g><g transform="translate(-38,-54) scale(1,1)"><path d="M 983.419035512032 432.3253497152483 L 975 412 L 966.580964487968 432.3253497152483" fill="#FFFFFF" stroke="none"/></g><g transform="translate(-38,-54) scale(1,1)"><path d="M 983.419035512032 432.3253497152483 L 975 412 L 966.580964487968 432.3253497152483 L 983.419035512032 432.3253497152483" fill="none" stroke="#000000" stroke-miterlimit="10"/></g><g transform="translate(-38,-54) scale(1,1)"><path d="M 873 488 L 873 442 L 975 442 L 975 412" fill="none" stroke="#000000" stroke-miterlimit="10"/></g><g transform="translate(-38,-54) scale(1,1)"><path d="M 983.419035512032 432.3253497152483 L 975 412 L 966.580964487968 432.3253497152483" fill="#FFFFFF" stroke="none"/></g><g transform="translate(-38,-54) scale(1,1)"><path d="M 983.419035512032 432.3253497152483 L 975 412 L 966.580964487968 432.3253497152483 L 983.419035512032 432.3253497152483" fill="none" stroke="#000000" stroke-miterlimit="10"/></g><g transform="translate(-38,-54) scale(1,1)"><path d="M 322 328 L 322 256" fill="none" stroke="#000000" stroke-miterlimit="10"/></g><g transform="translate(-38,-54) scale(1,1)"><path d="M 326.209517756016 266.16267485762415 L 322 256 L 317.790482243984 266.16267485762415 L 322 278" fill="#000000" stroke="none"/></g><g transform="translate(-38,-54) scale(1,1)"><path d="M 326.209517756016 266.16267485762415 L 322 256 L 317.790482243984 266.16267485762415 L 322 278 L 326.209517756016 266.16267485762415" fill="none" stroke="#000000" stroke-miterlimit="10"/></g><g transform="translate(-38,-54) scale(1,1)"><path d="M 920 361 L 386 361" fill="none" stroke="#000000" stroke-miterlimit="10"/></g><g transform="translate(-38,-54) scale(1,1)"><path d="M 396.16267485762415 356.790482243984 L 386 361 L 396.16267485762415 365.209517756016 L 408 361" fill="#000000" stroke="none"/></g><g transform="translate(-38,-54) scale(1,1)"><path d="M 396.16267485762415 356.790482243984 L 386 361 L 396.16267485762415 365.209517756016 L 408 361 L 396.16267485762415 356.790482243984" fill="none" stroke="#000000" stroke-miterlimit="10"/></g><g transform="translate(-38,-54) scale(1,1)"><g><path fill="none" stroke="none"/><text fill="#000000" font-family="Arial" font-size="13px" font-style="normal" font-weight="normal" stroke="none" text-decoration="none" x="895.58544921875" y="354.5">*</text></g></g><g transform="translate(-38,-54) scale(1,1)"><g><path fill="none" stroke="none"/><text fill="#000000" font-family="Arial" font-size="13px" font-style="normal" font-weight="normal" stroke="none" text-decoration="none" x="403.5" y="354.5">1</text></g></g><g transform="translate(-38,-54) scale(1,1)"><path d="M 976 312 L 976 208 L 822 208" fill="none" stroke="#000000" stroke-miterlimit="10"/></g><g transform="translate(-38,-54) scale(1,1)"><path d="M 832.1626748576241 203.790482243984 L 822 208 L 832.1626748576241 212.209517756016 L 844 208" fill="#000000" stroke="none"/></g><g transform="translate(-38,-54) scale(1,1)"><path d="M 832.1626748576241 203.790482243984 L 822 208 L 832.1626748576241 212.209517756016 L 844 208 L 832.1626748576241 203.790482243984" fill="none" stroke="#000000" stroke-miterlimit="10"/></g><g transform="translate(-38,-54) scale(1,1)"><g><path fill="none" stroke="none"/><text fill="#000000" font-family="Arial" font-size="13px" font-style="normal" font-weight="normal" stroke="none" text-decoration="none" x="985.220458984375" y="296.5">*</text></g></g><g transform="translate(-38,-54) scale(1,1)"><g><path fill="none" stroke="none"/><text fill="#000000" font-family="Arial" font-size="13px" font-style="normal" font-weight="normal" stroke="none" text-decoration="none" x="840.58544921875" y="201.5">*</text></g></g><g transform="translate(-38,-54) scale(1,1)"><path d="M 747 122 L 747 167" fill="none" stroke="#000000" stroke-miterlimit="10"/></g><g transform="translate(-38,-54) scale(1,1)"><path d="M 742.790482243984 156.83732514237585 L 747 167 L 751.209517756016 156.83732514237585 L 747 145" fill="#FFFFFF" stroke="none"/></g><g transform="translate(-38,-54) scale(1,1)"><path d="M 742.790482243984 156.83732514237585 L 747 167 L 751.209517756016 156.83732514237585 L 747 145 L 742.790482243984 156.83732514237585" fill="none" stroke="#000000" stroke-miterlimit="10"/></g><g transform="translate(-38,-54) scale(1,1)"><path d="M 432 203 L 368 203" fill="none" stroke="#000000" stroke-miterlimit="10"/></g><g transform="translate(-38,-54) scale(1,1)"><path d="M 378.16267485762415 198.790482243984 L 368 203 L 378.16267485762415 207.209517756016 L 390 203" fill="#FFFFFF" stroke="none"/></g><g transform="translate(-38,-54) scale(1,1)"><path d="M 378.16267485762415 198.790482243984 L 368 203 L 378.16267485762415 207.209517756016 L 390 203 L 378.16267485762415 198.790482243984" fill="none" stroke="#000000" stroke-miterlimit="10"/></g><g transform="translate(-38,-54) scale(1,1)"><path d="M 553 203 L 672 203" fill="none" stroke="#000000" stroke-miterlimit="10"/></g><g transform="translate(-38,-54) scale(1,1)"><g><path fill="none" stroke="none"/><text fill="#000000" font-family="Arial" font-size="13px" font-style="normal" font-weight="normal" stroke="none" text-decoration="none" x="570.5" y="221.5">1</text></g></g><g transform="translate(-38,-54) scale(1,1)"><g><path fill="none" stroke="none"/><text fill="#000000" font-family="Arial" font-size="13px" font-style="normal" font-weight="normal" stroke="none" text-decoration="none" x="646.5" y="221.5">1</text></g></g><g transform="translate(-38,-54) scale(1,1)"><path d="M 712 92 L 624 92" fill="none" stroke="#000000" stroke-miterlimit="10"/></g><g transform="translate(-38,-54) scale(1,1)"><g><path fill="none" stroke="none"/><text fill="#000000" font-family="Arial" font-size="13px" font-style="normal" font-weight="normal" stroke="none" text-decoration="none" x="686.5" y="85.5">1</text></g></g><g transform="translate(-38,-54) scale(1,1)"><g><path fill="none" stroke="none"/><text fill="#000000" font-family="Arial" font-size="13px" font-style="normal" font-weight="normal" stroke="none" text-decoration="none" x="641.5" y="85.5">1</text></g></g><g transform="translate(-38,-54) scale(1,1)"><path d="M 784 96 L 1080 96 L 1080 361 L 1031 361" fill="none" stroke="#000000" stroke-miterlimit="10"/></g><g transform="translate(-38,-54) scale(1,1)"><g><path fill="none" stroke="none"/><text fill="#000000" font-family="Arial" font-size="13px" font-style="normal" font-weight="normal" stroke="none" text-decoration="none" x="794.5" y="114.5">0..3</text></g></g><g transform="translate(-38,-54) scale(1,1)"><g><path fill="none" stroke="none"/><text fill="#000000" font-family="Arial" font-size="13px" font-style="normal" font-weight="normal" stroke="none" text-decoration="none" x="1048.5" y="354.5">1</text></g></g></g></svg>