<?xml version="1.0" encoding="UTF-8" standalone="no"?><svg xmlns="http://www.w3.org/2000/svg" xmlns:xlink="http://www.w3.org/1999/xlink" height="546" version="1.1" width="1158.919921875"><defs/><g><g transform="translate(-78,-150) scale(1,1)"><rect fill="#C0C0C0" height="104" opacity="0.2" stroke="none" width="96" x="319" y="279"/></g><g transform="translate(-78,-150) scale(1,1)"><rect fill="#ffffff" height="104" stroke="none" width="96" x="312" y="272"/></g><g transform="translate(-78,-150) scale(1,1)"><path d="M 312 272 L 408 272 L 408 376 L 312 376 L 312 272 Z Z" fill="none" stroke="#000000" stroke-miterlimit="10"/></g><g transform="translate(-78,-150) scale(1,1)"><path d="M 315 272 L 315 376" fill="none" stroke="#000000" stroke-miterlimit="10"/></g><g transform="translate(-78,-150) scale(1,1)"><path d="M 405 272 L 405 376" fill="none" stroke="#000000" stroke-miterlimit="10"/></g><g transform="translate(-78,-150) scale(1,1)"><path d="M 312 297 L 408 297" fill="none" stroke="#000000" stroke-miterlimit="10"/></g><g transform="translate(-78,-150) scale(1,1)"><path d="M 312 307 L 408 307" fill="none" stroke="#000000" stroke-miterlimit="10"/></g><g transform="translate(-78,-150) scale(1,1)"><g><path fill="none" stroke="none"/><text fill="#000000" font-family="Arial" font-size="13px" font-style="normal" font-weight="bold" stroke="none" text-decoration="none" x="338.3291015625" y="291.5">Factory</text></g></g><g transform="translate(-78,-150) scale(1,1)"><g><path fill="none" stroke="none"/><text fill="#000000" font-family="Arial" font-size="13px" font-style="normal" font-weight="normal" stroke="none" text-decoration="none" x="317" y="324.5">+Start()</text></g></g><g transform="translate(-78,-150) scale(1,1)"><g><path fill="none" stroke="none"/><text fill="#000000" font-family="Arial" font-size="13px" font-style="normal" font-weight="normal" stroke="none" text-decoration="none" x="317" y="339.5">+Stop()</text></g></g><g transform="translate(-78,-150) scale(1,1)"><g><path fill="none" stroke="none"/><text fill="#000000" font-family="Arial" font-size="13px" font-style="normal" font-weight="normal" stroke="none" text-decoration="none" x="317" y="354.5">+DelPiece()</text></g></g><g transform="translate(-78,-150) scale(1,1)"><g><path fill="none" stroke="none"/><text fill="#000000" font-family="Arial" font-size="13px" font-style="normal" font-weight="normal" stroke="none" text-decoration="none" x="317" y="369.5">+AddPiece()</text></g></g><g transform="translate(-78,-150) scale(1,1)"><rect fill="#C0C0C0" height="72" opacity="0.2" stroke="none" width="97.53076171875" x="119" y="295"/></g><g transform="translate(-78,-150) scale(1,1)"><rect fill="#ffffff" height="72" stroke="none" width="97.53076171875" x="112" y="288"/></g><g transform="translate(-78,-150) scale(1,1)"><path d="M 112 288 L 209.53076171875 288 L 209.53076171875 360 L 112 360 L 112 288 Z Z" fill="none" stroke="#000000" stroke-miterlimit="10"/></g><g transform="translate(-78,-150) scale(1,1)"><path d="M 115 288 L 115 360" fill="none" stroke="#000000" stroke-miterlimit="10"/></g><g transform="translate(-78,-150) scale(1,1)"><path d="M 206.53076171875 288 L 206.53076171875 360" fill="none" stroke="#000000" stroke-miterlimit="10"/></g><g transform="translate(-78,-150) scale(1,1)"><path d="M 112 313 L 209.53076171875 313" fill="none" stroke="#000000" stroke-miterlimit="10"/></g><g transform="translate(-78,-150) scale(1,1)"><path d="M 112 323 L 209.53076171875 323" fill="none" stroke="#000000" stroke-miterlimit="10"/></g><g transform="translate(-78,-150) scale(1,1)"><g><path fill="none" stroke="none"/><text fill="#000000" font-family="Arial" font-size="13px" font-style="normal" font-weight="bold" stroke="none" text-decoration="none" x="129.699951171875" y="307.5">OPC client</text></g></g><g transform="translate(-78,-150) scale(1,1)"><g><path fill="none" stroke="none"/><text fill="#000000" font-family="Arial" font-size="13px" font-style="normal" font-weight="normal" stroke="none" text-decoration="none" x="117" y="340.5">+PollOrders()</text></g></g><g transform="translate(-78,-150) scale(1,1)"><g><path fill="none" stroke="none"/><text fill="#000000" font-family="Arial" font-size="13px" font-style="normal" font-weight="normal" stroke="none" text-decoration="none" x="117" y="355.5">+SendUpdate()</text></g></g><g transform="translate(-78,-150) scale(1,1)"><rect fill="#C0C0C0" height="72" opacity="0.2" stroke="none" width="105.7890625" x="311" y="167"/></g><g transform="translate(-78,-150) scale(1,1)"><rect fill="#ffffff" height="72" stroke="none" width="105.7890625" x="304" y="160"/></g><g transform="translate(-78,-150) scale(1,1)"><path d="M 304 160 L 409.7890625 160 L 409.7890625 232 L 304 232 L 304 160 Z Z" fill="none" stroke="#000000" stroke-miterlimit="10"/></g><g transform="translate(-78,-150) scale(1,1)"><path d="M 307 160 L 307 232" fill="none" stroke="#000000" stroke-miterlimit="10"/></g><g transform="translate(-78,-150) scale(1,1)"><path d="M 406.7890625 160 L 406.7890625 232" fill="none" stroke="#000000" stroke-miterlimit="10"/></g><g transform="translate(-78,-150) scale(1,1)"><path d="M 304 185 L 409.7890625 185" fill="none" stroke="#000000" stroke-miterlimit="10"/></g><g transform="translate(-78,-150) scale(1,1)"><path d="M 304 195 L 409.7890625 195" fill="none" stroke="#000000" stroke-miterlimit="10"/></g><g transform="translate(-78,-150) scale(1,1)"><g><path fill="none" stroke="none"/><text fill="#000000" font-family="Arial" font-size="13px" font-style="normal" font-weight="bold" stroke="none" text-decoration="none" x="311.378662109375" y="179.5">ModBus Master</text></g></g><g transform="translate(-78,-150) scale(1,1)"><g><path fill="none" stroke="none"/><text fill="#000000" font-family="Arial" font-size="13px" font-style="normal" font-weight="normal" stroke="none" text-decoration="none" x="309" y="212.5">+ReadInputs()</text></g></g><g transform="translate(-78,-150) scale(1,1)"><g><path fill="none" stroke="none"/><text fill="#000000" font-family="Arial" font-size="13px" font-style="normal" font-weight="normal" stroke="none" text-decoration="none" x="309" y="227.5">+WriteCoils()</text></g></g><g transform="translate(-78,-150) scale(1,1)"><rect fill="#C0C0C0" height="72" opacity="0.2" stroke="none" width="72.2353515625" x="759" y="295"/></g><g transform="translate(-78,-150) scale(1,1)"><rect fill="#ffffff" height="72" stroke="none" width="72.2353515625" x="752" y="288"/></g><g transform="translate(-78,-150) scale(1,1)"><path d="M 752 288 L 824.2353515625 288 L 824.2353515625 360 L 752 360 L 752 288 Z Z" fill="none" stroke="#000000" stroke-miterlimit="10"/></g><g transform="translate(-78,-150) scale(1,1)"><path d="M 752 313 L 824.2353515625 313" fill="none" stroke="#000000" stroke-miterlimit="10"/></g><g transform="translate(-78,-150) scale(1,1)"><path d="M 752 351 L 824.2353515625 351" fill="none" stroke="#000000" stroke-miterlimit="10"/></g><g transform="translate(-78,-150) scale(1,1)"><g><path fill="none" stroke="none"/><text fill="#000000" font-family="Arial" font-size="13px" font-style="normal" font-weight="bold" stroke="none" text-decoration="none" x="774.746337890625" y="307.5">Path</text></g></g><g transform="translate(-78,-150) scale(1,1)"><g><path fill="none" stroke="none"/><text fill="#000000" font-family="Arial" font-size="13px" font-style="normal" font-weight="normal" stroke="none" text-decoration="none" x="757" y="330.5">+Path</text></g></g><g transform="translate(-78,-150) scale(1,1)"><g><path fill="none" stroke="none"/><text fill="#000000" font-family="Arial" font-size="13px" font-style="normal" font-weight="normal" stroke="none" text-decoration="none" x="757" y="345.5">+PathSize</text></g></g><g transform="translate(-78,-150) scale(1,1)"><rect fill="#C0C0C0" height="85" opacity="0.2" stroke="none" width="120.642578125" x="479" y="287"/></g><g transform="translate(-78,-150) scale(1,1)"><rect fill="#ffffff" height="85" stroke="none" width="120.642578125" x="472" y="280"/></g><g transform="translate(-78,-150) scale(1,1)"><path d="M 472 280 L 592.642578125 280 L 592.642578125 365 L 472 365 L 472 280 Z Z" fill="none" stroke="#000000" stroke-miterlimit="10"/></g><g transform="translate(-78,-150) scale(1,1)"><path d="M 472 305 L 592.642578125 305" fill="none" stroke="#000000" stroke-miterlimit="10"/></g><g transform="translate(-78,-150) scale(1,1)"><path d="M 472 343 L 592.642578125 343" fill="none" stroke="#000000" stroke-miterlimit="10"/></g><g transform="translate(-78,-150) scale(1,1)"><g><path fill="none" stroke="none"/><text fill="#000000" font-family="Arial" font-size="13px" font-style="normal" font-weight="bold" stroke="none" text-decoration="none" x="516.061767578125" y="299.5">Piece</text></g></g><g transform="translate(-78,-150) scale(1,1)"><g><path fill="none" stroke="none"/><text fill="#000000" font-family="Arial" font-size="13px" font-style="normal" font-weight="normal" stroke="none" text-decoration="none" x="477" y="322.5">+ID</text></g></g><g transform="translate(-78,-150) scale(1,1)"><g><path fill="none" stroke="none"/><text fill="#000000" font-family="Arial" font-size="13px" font-style="normal" font-weight="normal" stroke="none" text-decoration="none" x="477" y="337.5">+PieceType</text></g></g><g transform="translate(-78,-150) scale(1,1)"><g><path fill="none" stroke="none"/><text fill="#000000" font-family="Arial" font-size="13px" font-style="normal" font-weight="normal" stroke="none" text-decoration="none" x="477" y="360.5">+UpdatePath()</text></g></g><g transform="translate(-78,-150) scale(1,1)"><rect fill="#C0C0C0" height="44" opacity="0.2" stroke="none" width="50.919921875" x="343" y="463"/></g><g transform="translate(-78,-150) scale(1,1)"><rect fill="#ffffff" height="44" stroke="none" width="50.919921875" x="336" y="456"/></g><g transform="translate(-78,-150) scale(1,1)"><path d="M 336 456 L 386.919921875 456 L 386.919921875 500 L 336 500 L 336 456 Z Z" fill="none" stroke="#000000" stroke-miterlimit="10"/></g><g transform="translate(-78,-150) scale(1,1)"><path d="M 336 481 L 386.919921875 481" fill="none" stroke="#000000" stroke-miterlimit="10"/></g><g transform="translate(-78,-150) scale(1,1)"><path d="M 336 491 L 386.919921875 491" fill="none" stroke="#000000" stroke-miterlimit="10"/></g><g transform="translate(-78,-150) scale(1,1)"><g><path fill="none" stroke="none"/><text fill="#000000" font-family="Arial" font-size="13px" font-style="normal" font-weight="bold" stroke="none" text-decoration="none" x="350.2626953125" y="475.5">Cell</text></g></g><g transform="translate(-78,-150) scale(1,1)"><rect fill="#C0C0C0" height="70" opacity="0.2" stroke="none" width="120.642578125" x="95" y="623"/></g><g transform="translate(-78,-150) scale(1,1)"><rect fill="#ffffff" height="70" stroke="none" width="120.642578125" x="88" y="616"/></g><g transform="translate(-78,-150) scale(1,1)"><path d="M 88 616 L 208.642578125 616 L 208.642578125 686 L 88 686 L 88 616 Z Z" fill="none" stroke="#000000" stroke-miterlimit="10"/></g><g transform="translate(-78,-150) scale(1,1)"><path d="M 88 641 L 208.642578125 641" fill="none" stroke="#000000" stroke-miterlimit="10"/></g><g transform="translate(-78,-150) scale(1,1)"><path d="M 88 664 L 208.642578125 664" fill="none" stroke="#000000" stroke-miterlimit="10"/></g><g transform="translate(-78,-150) scale(1,1)"><g><path fill="none" stroke="none"/><text fill="#000000" font-family="Arial" font-size="13px" font-style="normal" font-weight="bold" stroke="none" text-decoration="none" x="115.322998046875" y="635.5">Warehouse</text></g></g><g transform="translate(-78,-150) scale(1,1)"><g><path fill="none" stroke="none"/><text fill="#000000" font-family="Arial" font-size="13px" font-style="normal" font-weight="normal" stroke="none" text-decoration="none" x="93" y="658.5">+Inventory</text></g></g><g transform="translate(-78,-150) scale(1,1)"><g><path fill="none" stroke="none"/><text fill="#000000" font-family="Arial" font-size="13px" font-style="normal" font-weight="normal" stroke="none" text-decoration="none" x="93" y="681.5">+UpdateInventory()</text></g></g><g transform="translate(-78,-150) scale(1,1)"><rect fill="#C0C0C0" height="44" opacity="0.2" stroke="none" width="103.62451171875" x="359" y="623"/></g><g transform="translate(-78,-150) scale(1,1)"><rect fill="#ffffff" height="44" stroke="none" width="103.62451171875" x="352" y="616"/></g><g transform="translate(-78,-150) scale(1,1)"><path d="M 352 616 L 455.62451171875 616 L 455.62451171875 660 L 352 660 L 352 616 Z Z" fill="none" stroke="#000000" stroke-miterlimit="10"/></g><g transform="translate(-78,-150) scale(1,1)"><path d="M 352 641 L 455.62451171875 641" fill="none" stroke="#000000" stroke-miterlimit="10"/></g><g transform="translate(-78,-150) scale(1,1)"><path d="M 352 651 L 455.62451171875 651" fill="none" stroke="#000000" stroke-miterlimit="10"/></g><g transform="translate(-78,-150) scale(1,1)"><g><path fill="none" stroke="none"/><text fill="#000000" font-family="Arial" font-size="13px" font-style="normal" font-weight="bold" stroke="none" text-decoration="none" x="360.343505859375" y="635.5">Transformation</text></g></g><g transform="translate(-78,-150) scale(1,1)"><rect fill="#C0C0C0" height="57" opacity="0.2" stroke="none" width="101.14892578125" x="479" y="623"/></g><g transform="translate(-78,-150) scale(1,1)"><rect fill="#ffffff" height="57" stroke="none" width="101.14892578125" x="472" y="616"/></g><g transform="translate(-78,-150) scale(1,1)"><path d="M 472 616 L 573.14892578125 616 L 573.14892578125 673 L 472 673 L 472 616 Z Z" fill="none" stroke="#000000" stroke-miterlimit="10"/></g><g transform="translate(-78,-150) scale(1,1)"><path d="M 472 641 L 573.14892578125 641" fill="none" stroke="#000000" stroke-miterlimit="10"/></g><g transform="translate(-78,-150) scale(1,1)"><path d="M 472 651 L 573.14892578125 651" fill="none" stroke="#000000" stroke-miterlimit="10"/></g><g transform="translate(-78,-150) scale(1,1)"><g><path fill="none" stroke="none"/><text fill="#000000" font-family="Arial" font-size="13px" font-style="normal" font-weight="bold" stroke="none" text-decoration="none" x="508.114501953125" y="635.5">Load</text></g></g><g transform="translate(-78,-150) scale(1,1)"><g><path fill="none" stroke="none"/><text fill="#000000" font-family="Arial" font-size="13px" font-style="normal" font-weight="normal" stroke="none" text-decoration="none" x="477" y="668.5">+PieceLoaded()</text></g></g><g transform="translate(-78,-150) scale(1,1)"><rect fill="#C0C0C0" height="57" opacity="0.2" stroke="none" width="113.42529296875" x="599" y="623"/></g><g transform="translate(-78,-150) scale(1,1)"><rect fill="#ffffff" height="57" stroke="none" width="113.42529296875" x="592" y="616"/></g><g transform="translate(-78,-150) scale(1,1)"><path d="M 592 616 L 705.42529296875 616 L 705.42529296875 673 L 592 673 L 592 616 Z Z" fill="none" stroke="#000000" stroke-miterlimit="10"/></g><g transform="translate(-78,-150) scale(1,1)"><path d="M 592 641 L 705.42529296875 641" fill="none" stroke="#000000" stroke-miterlimit="10"/></g><g transform="translate(-78,-150) scale(1,1)"><path d="M 592 651 L 705.42529296875 651" fill="none" stroke="#000000" stroke-miterlimit="10"/></g><g transform="translate(-78,-150) scale(1,1)"><g><path fill="none" stroke="none"/><text fill="#000000" font-family="Arial" font-size="13px" font-style="normal" font-weight="bold" stroke="none" text-decoration="none" x="628.114501953125" y="635.5">Unload</text></g></g><g transform="translate(-78,-150) scale(1,1)"><g><path fill="none" stroke="none"/><text fill="#000000" font-family="Arial" font-size="13px" font-style="normal" font-weight="normal" stroke="none" text-decoration="none" x="597" y="668.5">+PieceUnloaded()</text></g></g><g transform="translate(-78,-150) scale(1,1)"><rect fill="#C0C0C0" height="44" opacity="0.2" stroke="none" width="100.00634765625" x="239" y="623"/></g><g transform="translate(-78,-150) scale(1,1)"><rect fill="#ffffff" height="44" stroke="none" width="100.00634765625" x="232" y="616"/></g><g transform="translate(-78,-150) scale(1,1)"><path d="M 232 616 L 332.00634765625 616 L 332.00634765625 660 L 232 660 L 232 616 Z Z" fill="none" stroke="#000000" stroke-miterlimit="10"/></g><g transform="translate(-78,-150) scale(1,1)"><path d="M 232 641 L 332.00634765625 641" fill="none" stroke="#000000" stroke-miterlimit="10"/></g><g transform="translate(-78,-150) scale(1,1)"><path d="M 232 651 L 332.00634765625 651" fill="none" stroke="#000000" stroke-miterlimit="10"/></g><g transform="translate(-78,-150) scale(1,1)"><g><path fill="none" stroke="none"/><text fill="#000000" font-family="Arial" font-size="13px" font-style="normal" font-weight="bold" stroke="none" text-decoration="none" x="240.333984375" y="635.5">Transportation</text></g></g><g transform="translate(-78,-150) scale(1,1)"><rect fill="#C0C0C0" height="100" opacity="0.2" stroke="none" width="110.7529296875" x="967" y="439"/></g><g transform="translate(-78,-150) scale(1,1)"><rect fill="#ffffff" height="100" stroke="none" width="110.7529296875" x="960" y="432"/></g><g transform="translate(-78,-150) scale(1,1)"><path d="M 960 432 L 1070.7529296875 432 L 1070.7529296875 532 L 960 532 L 960 432 Z Z" fill="none" stroke="#000000" stroke-miterlimit="10"/></g><g transform="translate(-78,-150) scale(1,1)"><path d="M 960 457 L 1070.7529296875 457" fill="none" stroke="#000000" stroke-miterlimit="10"/></g><g transform="translate(-78,-150) scale(1,1)"><path d="M 960 480 L 1070.7529296875 480" fill="none" stroke="#000000" stroke-miterlimit="10"/></g><g transform="translate(-78,-150) scale(1,1)"><g><path fill="none" stroke="none"/><text fill="#000000" font-family="Arial" font-size="13px" font-style="normal" font-weight="bold" stroke="none" text-decoration="none" x="987.557861328125" y="451.5">Conveyer</text></g></g><g transform="translate(-78,-150) scale(1,1)"><g><path fill="none" stroke="none"/><text fill="#000000" font-family="Arial" font-size="13px" font-style="normal" font-weight="normal" stroke="none" text-decoration="none" x="965" y="474.5">+ID</text></g></g><g transform="translate(-78,-150) scale(1,1)"><g><path fill="none" stroke="none"/><text fill="#000000" font-family="Arial" font-size="13px" font-style="normal" font-weight="normal" stroke="none" text-decoration="none" x="965" y="497.5">+Free()</text></g></g><g transform="translate(-78,-150) scale(1,1)"><g><path fill="none" stroke="none"/><text fill="#000000" font-family="Arial" font-size="13px" font-style="normal" font-weight="normal" stroke="none" text-decoration="none" x="965" y="512.5">+Busy()</text></g></g><g transform="translate(-78,-150) scale(1,1)"><g><path fill="none" stroke="none"/><text fill="#000000" font-family="Arial" font-size="13px" font-style="normal" font-weight="normal" stroke="none" text-decoration="none" x="965" y="527.5">+MovePiece()</text></g></g><g transform="translate(-78,-150) scale(1,1)"><rect fill="#C0C0C0" height="44" opacity="0.2" stroke="none" width="89.57080078125" x="879" y="615"/></g><g transform="translate(-78,-150) scale(1,1)"><rect fill="#ffffff" height="44" stroke="none" width="89.57080078125" x="872" y="608"/></g><g transform="translate(-78,-150) scale(1,1)"><path d="M 872 608 L 961.57080078125 608 L 961.57080078125 652 L 872 652 L 872 608 Z Z" fill="none" stroke="#000000" stroke-miterlimit="10"/></g><g transform="translate(-78,-150) scale(1,1)"><path d="M 872 633 L 961.57080078125 633" fill="none" stroke="#000000" stroke-miterlimit="10"/></g><g transform="translate(-78,-150) scale(1,1)"><path d="M 872 643 L 961.57080078125 643" fill="none" stroke="#000000" stroke-miterlimit="10"/></g><g transform="translate(-78,-150) scale(1,1)"><g><path fill="none" stroke="none"/><text fill="#000000" font-family="Arial" font-size="13px" font-style="normal" font-weight="bold" stroke="none" text-decoration="none" x="898.716796875" y="627.5">Linear</text></g></g><g transform="translate(-78,-150) scale(1,1)"><rect fill="#C0C0C0" height="57" opacity="0.2" stroke="none" width="93.91259765625" x="1079" y="615"/></g><g transform="translate(-78,-150) scale(1,1)"><rect fill="#ffffff" height="57" stroke="none" width="93.91259765625" x="1072" y="608"/></g><g transform="translate(-78,-150) scale(1,1)"><path d="M 1072 608 L 1165.91259765625 608 L 1165.91259765625 665 L 1072 665 L 1072 608 Z Z" fill="none" stroke="#000000" stroke-miterlimit="10"/></g><g transform="translate(-78,-150) scale(1,1)"><path d="M 1072 633 L 1165.91259765625 633" fill="none" stroke="#000000" stroke-miterlimit="10"/></g><g transform="translate(-78,-150) scale(1,1)"><path d="M 1072 656 L 1165.91259765625 656" fill="none" stroke="#000000" stroke-miterlimit="10"/></g><g transform="translate(-78,-150) scale(1,1)"><g><path fill="none" stroke="none"/><text fill="#000000" font-family="Arial" font-size="13px" font-style="normal" font-weight="bold" stroke="none" text-decoration="none" x="1094.3876953125" y="627.5">Machine</text></g></g><g transform="translate(-78,-150) scale(1,1)"><g><path fill="none" stroke="none"/><text fill="#000000" font-family="Arial" font-size="13px" font-style="normal" font-weight="normal" stroke="none" text-decoration="none" x="1077" y="650.5">+MachineType</text></g></g><g transform="translate(-78,-150) scale(1,1)"><rect fill="#C0C0C0" height="57" opacity="0.2" stroke="none" width="89.57080078125" x="975" y="615"/></g><g transform="translate(-78,-150) scale(1,1)"><rect fill="#ffffff" height="57" stroke="none" width="89.57080078125" x="968" y="608"/></g><g transform="translate(-78,-150) scale(1,1)"><path d="M 968 608 L 1057.57080078125 608 L 1057.57080078125 665 L 968 665 L 968 608 Z Z" fill="none" stroke="#000000" stroke-miterlimit="10"/></g><g transform="translate(-78,-150) scale(1,1)"><path d="M 968 633 L 1057.57080078125 633" fill="none" stroke="#000000" stroke-miterlimit="10"/></g><g transform="translate(-78,-150) scale(1,1)"><path d="M 968 643 L 1057.57080078125 643" fill="none" stroke="#000000" stroke-miterlimit="10"/></g><g transform="translate(-78,-150) scale(1,1)"><g><path fill="none" stroke="none"/><text fill="#000000" font-family="Arial" font-size="13px" font-style="normal" font-weight="bold" stroke="none" text-decoration="none" x="991.469970703125" y="627.5">Rotator</text></g></g><g transform="translate(-78,-150) scale(1,1)"><g><path fill="none" stroke="none"/><text fill="#000000" font-family="Arial" font-size="13px" font-style="normal" font-weight="normal" stroke="none" text-decoration="none" x="973" y="660.5">+Rotate()</text></g></g><g transform="translate(-78,-150) scale(1,1)"><rect fill="#C0C0C0" height="44" opacity="0.2" stroke="none" width="50.919921875" x="1183" y="615"/></g><g transform="translate(-78,-150) scale(1,1)"><rect fill="#ffffff" height="44" stroke="none" width="50.919921875" x="1176" y="608"/></g><g transform="translate(-78,-150) scale(1,1)"><path d="M 1176 608 L 1226.919921875 608 L 1226.919921875 652 L 1176 652 L 1176 608 Z Z" fill="none" stroke="#000000" stroke-miterlimit="10"/></g><g transform="translate(-78,-150) scale(1,1)"><path d="M 1176 633 L 1226.919921875 633" fill="none" stroke="#000000" stroke-miterlimit="10"/></g><g transform="translate(-78,-150) scale(1,1)"><path d="M 1176 643 L 1226.919921875 643" fill="none" stroke="#000000" stroke-miterlimit="10"/></g><g transform="translate(-78,-150) scale(1,1)"><g><path fill="none" stroke="none"/><text fill="#000000" font-family="Arial" font-size="13px" font-style="normal" font-weight="bold" stroke="none" text-decoration="none" x="1187.00634765625" y="627.5">Slide</text></g></g><g transform="translate(-78,-150) scale(1,1)"><rect fill="#C0C0C0" height="44" opacity="0.2" stroke="none" width="78.58935546875" x="791" y="615"/></g><g transform="translate(-78,-150) scale(1,1)"><rect fill="#ffffff" height="44" stroke="none" width="78.58935546875" x="784" y="608"/></g><g transform="translate(-78,-150) scale(1,1)"><path d="M 784 608 L 862.58935546875 608 L 862.58935546875 652 L 784 652 L 784 608 Z Z" fill="none" stroke="#000000" stroke-miterlimit="10"/></g><g transform="translate(-78,-150) scale(1,1)"><path d="M 784 633 L 862.58935546875 633" fill="none" stroke="#000000" stroke-miterlimit="10"/></g><g transform="translate(-78,-150) scale(1,1)"><path d="M 784 643 L 862.58935546875 643" fill="none" stroke="#000000" stroke-miterlimit="10"/></g><g transform="translate(-78,-150) scale(1,1)"><g><path fill="none" stroke="none"/><text fill="#000000" font-family="Arial" font-size="13px" font-style="normal" font-weight="bold" stroke="none" text-decoration="none" x="790.29638671875" y="627.5">Warehouse</text></g></g><g transform="translate(-78,-150) scale(1,1)"><rect fill="#C0C0C0" height="57" opacity="0.2" stroke="none" width="72.2353515625" x="759" y="191"/></g><g transform="translate(-78,-150) scale(1,1)"><rect fill="#ffffff" height="57" stroke="none" width="72.2353515625" x="752" y="184"/></g><g transform="translate(-78,-150) scale(1,1)"><path d="M 752 184 L 824.2353515625 184 L 824.2353515625 241 L 752 241 L 752 184 Z Z" fill="none" stroke="#000000" stroke-miterlimit="10"/></g><g transform="translate(-78,-150) scale(1,1)"><path d="M 752 209 L 824.2353515625 209" fill="none" stroke="#000000" stroke-miterlimit="10"/></g><g transform="translate(-78,-150) scale(1,1)"><path d="M 752 232 L 824.2353515625 232" fill="none" stroke="#000000" stroke-miterlimit="10"/></g><g transform="translate(-78,-150) scale(1,1)"><g><path fill="none" stroke="none"/><text fill="#000000" font-family="Arial" font-size="13px" font-style="normal" font-weight="bold" stroke="none" text-decoration="none" x="759.572265625" y="203.5">Operation</text></g></g><g transform="translate(-78,-150) scale(1,1)"><g><path fill="none" stroke="none"/><text fill="#000000" font-family="Arial" font-size="13px" font-style="normal" font-weight="normal" stroke="none" text-decoration="none" x="757" y="226.5">+Time</text></g></g><g transform="translate(-78,-150) scale(1,1)"><rect fill="#C0C0C0" height="57" opacity="0.2" stroke="none" width="72.2353515625" x="599" y="191"/></g><g transform="translate(-78,-150) scale(1,1)"><rect fill="#ffffff" height="57" stroke="none" width="72.2353515625" x="592" y="184"/></g><g transform="translate(-78,-150) scale(1,1)"><path d="M 592 184 L 664.2353515625 184 L 664.2353515625 241 L 592 241 L 592 184 Z Z" fill="none" stroke="#000000" stroke-miterlimit="10"/></g><g transform="translate(-78,-150) scale(1,1)"><path d="M 592 209 L 664.2353515625 209" fill="none" stroke="#000000" stroke-miterlimit="10"/></g><g transform="translate(-78,-150) scale(1,1)"><path d="M 592 232 L 664.2353515625 232" fill="none" stroke="#000000" stroke-miterlimit="10"/></g><g transform="translate(-78,-150) scale(1,1)"><g><path fill="none" stroke="none"/><text fill="#000000" font-family="Arial" font-size="13px" font-style="normal" font-weight="bold" stroke="none" text-decoration="none" x="616.193603515625" y="203.5">Tool</text></g></g><g transform="translate(-78,-150) scale(1,1)"><g><path fill="none" stroke="none"/><text fill="#000000" font-family="Arial" font-size="13px" font-style="normal" font-weight="normal" stroke="none" text-decoration="none" x="597" y="226.5">+ToolType</text></g></g><g transform="translate(-78,-150) scale(1,1)"><path d="M 152 616 L 152 570 L 361 570 L 361 500" fill="none" stroke="#000000" stroke-miterlimit="10"/></g><g transform="translate(-78,-150) scale(1,1)"><path d="M 369.419035512032 520.3253497152483 L 361 500 L 352.580964487968 520.3253497152483" fill="#FFFFFF" stroke="none"/></g><g transform="translate(-78,-150) scale(1,1)"><path d="M 369.419035512032 520.3253497152483 L 361 500 L 352.580964487968 520.3253497152483 L 369.419035512032 520.3253497152483" fill="none" stroke="#000000" stroke-miterlimit="10"/></g><g transform="translate(-78,-150) scale(1,1)"><path d="M 280 616 L 280 570 L 361 570 L 361 500" fill="none" stroke="#000000" stroke-miterlimit="10"/></g><g transform="translate(-78,-150) scale(1,1)"><path d="M 369.419035512032 520.3253497152483 L 361 500 L 352.580964487968 520.3253497152483" fill="#FFFFFF" stroke="none"/></g><g transform="translate(-78,-150) scale(1,1)"><path d="M 369.419035512032 520.3253497152483 L 361 500 L 352.580964487968 520.3253497152483 L 369.419035512032 520.3253497152483" fill="none" stroke="#000000" stroke-miterlimit="10"/></g><g transform="translate(-78,-150) scale(1,1)"><path d="M 408 616 L 408 570 L 361 570 L 361 500" fill="none" stroke="#000000" stroke-miterlimit="10"/></g><g transform="translate(-78,-150) scale(1,1)"><path d="M 369.419035512032 520.3253497152483 L 361 500 L 352.580964487968 520.3253497152483" fill="#FFFFFF" stroke="none"/></g><g transform="translate(-78,-150) scale(1,1)"><path d="M 369.419035512032 520.3253497152483 L 361 500 L 352.580964487968 520.3253497152483 L 369.419035512032 520.3253497152483" fill="none" stroke="#000000" stroke-miterlimit="10"/></g><g transform="translate(-78,-150) scale(1,1)"><path d="M 521 616 L 521 570 L 361 570 L 361 500" fill="none" stroke="#000000" stroke-miterlimit="10"/></g><g transform="translate(-78,-150) scale(1,1)"><path d="M 369.419035512032 520.3253497152483 L 361 500 L 352.580964487968 520.3253497152483" fill="#FFFFFF" stroke="none"/></g><g transform="translate(-78,-150) scale(1,1)"><path d="M 369.419035512032 520.3253497152483 L 361 500 L 352.580964487968 520.3253497152483 L 369.419035512032 520.3253497152483" fill="none" stroke="#000000" stroke-miterlimit="10"/></g><g transform="translate(-78,-150) scale(1,1)"><path d="M 640 616 L 640 570 L 361 570 L 361 500" fill="none" stroke="#000000" stroke-miterlimit="10"/></g><g transform="translate(-78,-150) scale(1,1)"><path d="M 369.419035512032 520.3253497152483 L 361 500 L 352.580964487968 520.3253497152483" fill="#FFFFFF" stroke="none"/></g><g transform="translate(-78,-150) scale(1,1)"><path d="M 369.419035512032 520.3253497152483 L 361 500 L 352.580964487968 520.3253497152483 L 369.419035512032 520.3253497152483" fill="none" stroke="#000000" stroke-miterlimit="10"/></g><g transform="translate(-78,-150) scale(1,1)"><path d="M 815 608 L 815 562 L 1015 562 L 1015 532" fill="none" stroke="#000000" stroke-miterlimit="10"/></g><g transform="translate(-78,-150) scale(1,1)"><path d="M 1023.419035512032 552.3253497152483 L 1015 532 L 1006.580964487968 552.3253497152483" fill="#FFFFFF" stroke="none"/></g><g transform="translate(-78,-150) scale(1,1)"><path d="M 1023.419035512032 552.3253497152483 L 1015 532 L 1006.580964487968 552.3253497152483 L 1023.419035512032 552.3253497152483" fill="none" stroke="#000000" stroke-miterlimit="10"/></g><g transform="translate(-78,-150) scale(1,1)"><path d="M 1200 608 L 1200 562 L 1015 562 L 1015 532" fill="none" stroke="#000000" stroke-miterlimit="10"/></g><g transform="translate(-78,-150) scale(1,1)"><path d="M 1023.419035512032 552.3253497152483 L 1015 532 L 1006.580964487968 552.3253497152483" fill="#FFFFFF" stroke="none"/></g><g transform="translate(-78,-150) scale(1,1)"><path d="M 1023.419035512032 552.3253497152483 L 1015 532 L 1006.580964487968 552.3253497152483 L 1023.419035512032 552.3253497152483" fill="none" stroke="#000000" stroke-miterlimit="10"/></g><g transform="translate(-78,-150) scale(1,1)"><path d="M 1112 608 L 1112 562 L 1015 562 L 1015 532" fill="none" stroke="#000000" stroke-miterlimit="10"/></g><g transform="translate(-78,-150) scale(1,1)"><path d="M 1023.419035512032 552.3253497152483 L 1015 532 L 1006.580964487968 552.3253497152483" fill="#FFFFFF" stroke="none"/></g><g transform="translate(-78,-150) scale(1,1)"><path d="M 1023.419035512032 552.3253497152483 L 1015 532 L 1006.580964487968 552.3253497152483 L 1023.419035512032 552.3253497152483" fill="none" stroke="#000000" stroke-miterlimit="10"/></g><g transform="translate(-78,-150) scale(1,1)"><path d="M 1016 608 L 1016 562 L 1015 562 L 1015 532" fill="none" stroke="#000000" stroke-miterlimit="10"/></g><g transform="translate(-78,-150) scale(1,1)"><path d="M 1023.419035512032 552.3253497152483 L 1015 532 L 1006.580964487968 552.3253497152483" fill="#FFFFFF" stroke="none"/></g><g transform="translate(-78,-150) scale(1,1)"><path d="M 1023.419035512032 552.3253497152483 L 1015 532 L 1006.580964487968 552.3253497152483 L 1023.419035512032 552.3253497152483" fill="none" stroke="#000000" stroke-miterlimit="10"/></g><g transform="translate(-78,-150) scale(1,1)"><path d="M 913 608 L 913 562 L 1015 562 L 1015 532" fill="none" stroke="#000000" stroke-miterlimit="10"/></g><g transform="translate(-78,-150) scale(1,1)"><path d="M 1023.419035512032 552.3253497152483 L 1015 532 L 1006.580964487968 552.3253497152483" fill="#FFFFFF" stroke="none"/></g><g transform="translate(-78,-150) scale(1,1)"><path d="M 1023.419035512032 552.3253497152483 L 1015 532 L 1006.580964487968 552.3253497152483 L 1023.419035512032 552.3253497152483" fill="none" stroke="#000000" stroke-miterlimit="10"/></g><g transform="translate(-78,-150) scale(1,1)"><path d="M 361 455 L 360 377" fill="none" stroke="#000000" stroke-miterlimit="10"/></g><g transform="translate(-78,-150) scale(1,1)"><path d="M 364.33945184577954 387.1078760221008 L 360 377 L 355.92110814816283 387.2158035054036 L 360.2820281051514 398.99819220181297" fill="#000000" stroke="none"/></g><g transform="translate(-78,-150) scale(1,1)"><path d="M 364.33945184577954 387.1078760221008 L 360 377 L 355.92110814816283 387.2158035054036 L 360.2820281051514 398.99819220181297 L 364.33945184577954 387.1078760221008" fill="none" stroke="#000000" stroke-miterlimit="10"/></g><g transform="translate(-78,-150) scale(1,1)"><path d="M 959 482 L 388 478" fill="none" stroke="#000000" stroke-miterlimit="10"/></g><g transform="translate(-78,-150) scale(1,1)"><path d="M 398.1919135246839 473.86177589957174 L 388 478 L 398.13293749005334 482.28060484308844 L 409.9994602104565 478.1541118053272" fill="#000000" stroke="none"/></g><g transform="translate(-78,-150) scale(1,1)"><path d="M 398.1919135246839 473.86177589957174 L 388 478 L 398.13293749005334 482.28060484308844 L 409.9994602104565 478.1541118053272 L 398.1919135246839 473.86177589957174" fill="none" stroke="#000000" stroke-miterlimit="10"/></g><g transform="translate(-78,-150) scale(1,1)"><g><path fill="none" stroke="none"/><text fill="#000000" font-family="Arial" font-size="13px" font-style="normal" font-weight="normal" stroke="none" text-decoration="none" x="934.58544921875" y="475.5">*</text></g></g><g transform="translate(-78,-150) scale(1,1)"><g><path fill="none" stroke="none"/><text fill="#000000" font-family="Arial" font-size="13px" font-style="normal" font-weight="normal" stroke="none" text-decoration="none" x="405.5" y="471.5">1</text></g></g><g transform="translate(-78,-150) scale(1,1)"><path d="M 1015 431 L 1016 328 L 825 325" fill="none" stroke="#000000" stroke-miterlimit="10"/></g><g transform="translate(-78,-150) scale(1,1)"><path d="M 835.2275314301133 320.95060487899195 L 825 325 L 835.0953115788002 329.3686020792632 L 846.9972867606148 325.34550712189446" fill="#000000" stroke="none"/></g><g transform="translate(-78,-150) scale(1,1)"><path d="M 835.2275314301133 320.95060487899195 L 825 325 L 835.0953115788002 329.3686020792632 L 846.9972867606148 325.34550712189446 L 835.2275314301133 320.95060487899195" fill="none" stroke="#000000" stroke-miterlimit="10"/></g><g transform="translate(-78,-150) scale(1,1)"><g><path fill="none" stroke="none"/><text fill="#000000" font-family="Arial" font-size="13px" font-style="normal" font-weight="normal" stroke="none" text-decoration="none" x="1024.220458984375" y="415.5">*</text></g></g><g transform="translate(-78,-150) scale(1,1)"><g><path fill="none" stroke="none"/><text fill="#000000" font-family="Arial" font-size="13px" font-style="normal" font-weight="normal" stroke="none" text-decoration="none" x="843.58544921875" y="318.5">*</text></g></g><g transform="translate(-78,-150) scale(1,1)"><path d="M 788 242 L 788 287" fill="none" stroke="#000000" stroke-miterlimit="10"/></g><g transform="translate(-78,-150) scale(1,1)"><path d="M 783.790482243984 276.83732514237585 L 788 287 L 792.209517756016 276.83732514237585 L 788 265" fill="#FFFFFF" stroke="none"/></g><g transform="translate(-78,-150) scale(1,1)"><path d="M 783.790482243984 276.83732514237585 L 788 287 L 792.209517756016 276.83732514237585 L 788 265 L 783.790482243984 276.83732514237585" fill="none" stroke="#000000" stroke-miterlimit="10"/></g><g transform="translate(-78,-150) scale(1,1)"><path d="M 471 323 L 409 323" fill="none" stroke="#000000" stroke-miterlimit="10"/></g><g transform="translate(-78,-150) scale(1,1)"><path d="M 419.16267485762415 318.790482243984 L 409 323 L 419.16267485762415 327.209517756016 L 431 323" fill="#FFFFFF" stroke="none"/></g><g transform="translate(-78,-150) scale(1,1)"><path d="M 419.16267485762415 318.790482243984 L 409 323 L 419.16267485762415 327.209517756016 L 431 323 L 419.16267485762415 318.790482243984" fill="none" stroke="#000000" stroke-miterlimit="10"/></g><g transform="translate(-78,-150) scale(1,1)"><path d="M 594 322 L 751 324" fill="none" stroke="#000000" stroke-miterlimit="10"/></g><g transform="translate(-78,-150) scale(1,1)"><g><path fill="none" stroke="none"/><text fill="#000000" font-family="Arial" font-size="13px" font-style="normal" font-weight="normal" stroke="none" text-decoration="none" x="611.5" y="340.5">1</text></g></g><g transform="translate(-78,-150) scale(1,1)"><g><path fill="none" stroke="none"/><text fill="#000000" font-family="Arial" font-size="13px" font-style="normal" font-weight="normal" stroke="none" text-decoration="none" x="725.5" y="342.5">1</text></g></g><g transform="translate(-78,-150) scale(1,1)"><path d="M 751 212 L 665 212" fill="none" stroke="#000000" stroke-miterlimit="10"/></g><g transform="translate(-78,-150) scale(1,1)"><g><path fill="none" stroke="none"/><text fill="#000000" font-family="Arial" font-size="13px" font-style="normal" font-weight="normal" stroke="none" text-decoration="none" x="725.5" y="205.5">1</text></g></g><g transform="translate(-78,-150) scale(1,1)"><g><path fill="none" stroke="none"/><text fill="#000000" font-family="Arial" font-size="13px" font-style="normal" font-weight="normal" stroke="none" text-decoration="none" x="682.5" y="205.5">1</text></g></g><g transform="translate(-78,-150) scale(1,1)"><path d="M 825 212 L 1120 216 L 1120 480 L 1072 481" fill="none" stroke="#000000" stroke-miterlimit="10"/></g><g transform="translate(-78,-150) scale(1,1)"><g><path fill="none" stroke="none"/><text fill="#000000" font-family="Arial" font-size="13px" font-style="normal" font-weight="normal" stroke="none" text-decoration="none" x="835.5" y="230.5">0..3</text></g></g><g transform="translate(-78,-150) scale(1,1)"><g><path fill="none" stroke="none"/><text fill="#000000" font-family="Arial" font-size="13px" font-style="normal" font-weight="normal" stroke="none" text-decoration="none" x="1089.5" y="474.5">1</text></g></g><g transform="translate(-78,-150) scale(1,1)"><path d="M 211 324 L 311 324" fill="none" stroke="#000000" stroke-dasharray="3" stroke-miterlimit="10"/></g><g transform="translate(-78,-150) scale(1,1)"><path d="M 300.83732514237585 328.209517756016 L 311 324 L 300.83732514237585 319.790482243984" fill="none" stroke="#000000" stroke-miterlimit="10"/></g><g transform="translate(-78,-150) scale(1,1)"><path d="M 358 271 L 357 233" fill="none" stroke="#000000" stroke-dasharray="3" stroke-miterlimit="10"/></g><g transform="translate(-78,-150) scale(1,1)"><path d="M 361.4754071800324 243.04841930718035 L 357 233 L 353.0592853332588 243.26989619788492" fill="none" stroke="#000000" stroke-miterlimit="10"/></g></g></svg>