<?xml version="1.0" encoding="UTF-8" standalone="no"?><svg xmlns="http://www.w3.org/2000/svg" xmlns:xlink="http://www.w3.org/1999/xlink" height="1316" version="1.1" width="1540"><defs/><g><g transform="translate(10,10) scale(1,1)"><path d="M 0 0 L 1520 0 L 1520 1296 L 0 1296 L 0 0" fill="none" stroke="#000000" stroke-miterlimit="10"/></g><g transform="translate(10,10) scale(1,1)"><path d="M 0 0 L 0 22 L 190.88427734375 22 L 201.88427734375 11 L 201.88427734375 0 L 0 0" fill="#ffffff" stroke="none"/></g><g transform="translate(10,10) scale(1,1)"><path d="M 0 0 L 0 22 L 190.88427734375 22 L 201.88427734375 11 L 201.88427734375 0 L 0 0 L 0 0" fill="none" stroke="#000000" stroke-miterlimit="10"/></g><g transform="translate(10,10) scale(1,1)"><g><path fill="none" stroke="none"/><text fill="#000000" font-family="Arial" font-size="13px" font-style="normal" font-weight="normal" stroke="none" text-decoration="none" x="70.97900390625" y="17.5">SequenceDiagram1</text></g></g><g transform="translate(10,10) scale(1,1)"><g><path fill="none" stroke="none"/><text fill="#000000" font-family="Arial" font-size="13px" font-style="normal" font-weight="bold" stroke="none" text-decoration="none" x="5" y="17.5">interaction</text></g></g><g transform="translate(10,10) scale(1,1)"><path d="M 112.9981551846591 47.3 C 112.9981551846591 43.82060576 115.8765569068409 41 119.42724609375 41 C 122.9779352806591 41 125.85633700284092 43.82060576 125.85633700284092 47.3 C 125.85633700284092 50.779394239999995 122.9779352806591 53.6 119.42724609375 53.6 C 115.8765569068409 53.6 112.9981551846591 50.779394239999995 112.9981551846591 47.3 Z" fill="#ffffff" stroke="none"/></g><g transform="translate(10,10) scale(1,1)"><path d="M 112.9981551846591 47.3 C 112.9981551846591 43.82060576 115.8765569068409 41 119.42724609375 41 C 122.9779352806591 41 125.85633700284092 43.82060576 125.85633700284092 47.3 C 125.85633700284092 50.779394239999995 122.9779352806591 53.6 119.42724609375 53.6 C 115.8765569068409 53.6 112.9981551846591 50.779394239999995 112.9981551846591 47.3 Z" fill="none" stroke="#000000" stroke-miterlimit="10"/></g><g transform="translate(10,10) scale(1,1)"><path d="M 119.42724609375 53.6 L 119.42724609375 66.4" fill="none" stroke="#000000" stroke-miterlimit="10"/></g><g transform="translate(10,10) scale(1,1)"><path d="M 112.61997336647728 58.4 L 126.23451882102273 58.4" fill="none" stroke="#000000" stroke-miterlimit="10"/></g><g transform="translate(10,10) scale(1,1)"><path d="M 119.42724609375 66.4 L 109.97270063920455 79" fill="none" stroke="#000000" stroke-miterlimit="10"/></g><g transform="translate(10,10) scale(1,1)"><path d="M 119.42724609375 66.4 L 128.88179154829547 79" fill="none" stroke="#000000" stroke-miterlimit="10"/></g><g transform="translate(10,10) scale(1,1)"><g><path fill="none" stroke="none"/><text fill="#000000" font-family="Arial" font-size="13px" font-style="normal" font-weight="bold" stroke="none" text-decoration="none" x="72.81640625" y="99.5">Lifeline1: Actor1</text></g></g><g transform="translate(10,10) scale(1,1)"><path d="M 120.5 105 L 120.5 1232" fill="none" stroke="#000000" stroke-dasharray="3" stroke-miterlimit="10"/></g><g transform="translate(10,10) scale(1,1)"><rect fill="#C0C0C0" height="39" opacity="0.2" stroke="none" width="71.736328125" x="207" y="47"/></g><g transform="translate(10,10) scale(1,1)"><rect fill="#ffffff" height="39" stroke="none" width="71.736328125" x="200" y="40"/></g><g transform="translate(10,10) scale(1,1)"><path d="M 200 40 L 271.736328125 40 L 271.736328125 79 L 200 79 L 200 40 Z Z" fill="none" stroke="#000000" stroke-miterlimit="10"/></g><g transform="translate(10,10) scale(1,1)"><g><path fill="none" stroke="none"/><text fill="#000000" font-family="Arial" font-size="13px" font-style="normal" font-weight="bold" stroke="none" text-decoration="none" x="224.312255859375" y="59.5">GUI</text></g></g><g transform="translate(10,10) scale(1,1)"><path d="M 236.5 80 L 236.5 1208" fill="none" stroke="#000000" stroke-dasharray="3" stroke-miterlimit="10"/></g><g transform="translate(10,10) scale(1,1)"><rect fill="#C0C0C0" height="39" opacity="0.2" stroke="none" width="92.68994140625" x="311" y="47"/></g><g transform="translate(10,10) scale(1,1)"><rect fill="#ffffff" height="39" stroke="none" width="92.68994140625" x="304" y="40"/></g><g transform="translate(10,10) scale(1,1)"><path d="M 304 40 L 396.68994140625 40 L 396.68994140625 79 L 304 79 L 304 40 Z Z" fill="none" stroke="#000000" stroke-miterlimit="10"/></g><g transform="translate(10,10) scale(1,1)"><g><path fill="none" stroke="none"/><text fill="#000000" font-family="Arial" font-size="13px" font-style="normal" font-weight="bold" stroke="none" text-decoration="none" x="314.944091796875" y="59.5">Socket UDP</text></g></g><g transform="translate(10,10) scale(1,1)"><path d="M 351.5 80 L 351.5 1216" fill="none" stroke="#000000" stroke-dasharray="3" stroke-miterlimit="10"/></g><g transform="translate(10,10) scale(1,1)"><rect fill="#C0C0C0" height="39" opacity="0.2" stroke="none" width="71.736328125" x="431" y="47"/></g><g transform="translate(10,10) scale(1,1)"><rect fill="#ffffff" height="39" stroke="none" width="71.736328125" x="424" y="40"/></g><g transform="translate(10,10) scale(1,1)"><path d="M 424 40 L 495.736328125 40 L 495.736328125 79 L 424 79 L 424 40 Z Z" fill="none" stroke="#000000" stroke-miterlimit="10"/></g><g transform="translate(10,10) scale(1,1)"><g><path fill="none" stroke="none"/><text fill="#000000" font-family="Arial" font-size="13px" font-style="normal" font-weight="bold" stroke="none" text-decoration="none" x="443.253173828125" y="59.5">Order</text></g></g><g transform="translate(10,10) scale(1,1)"><path d="M 460.5 80 L 460.5 1200" fill="none" stroke="#000000" stroke-dasharray="3" stroke-miterlimit="10"/></g><g transform="translate(10,10) scale(1,1)"><rect fill="#C0C0C0" height="39" opacity="0.2" stroke="none" width="78.95361328125" x="551" y="47"/></g><g transform="translate(10,10) scale(1,1)"><rect fill="#ffffff" height="39" stroke="none" width="78.95361328125" x="544" y="40"/></g><g transform="translate(10,10) scale(1,1)"><path d="M 544 40 L 622.95361328125 40 L 622.95361328125 79 L 544 79 L 544 40 Z Z" fill="none" stroke="#000000" stroke-miterlimit="10"/></g><g transform="translate(10,10) scale(1,1)"><g><path fill="none" stroke="none"/><text fill="#000000" font-family="Arial" font-size="13px" font-style="normal" font-weight="bold" stroke="none" text-decoration="none" x="555.667724609375" y="59.5">Optimizer</text></g></g><g transform="translate(10,10) scale(1,1)"><path d="M 584.5 80 L 584.5 1192" fill="none" stroke="#000000" stroke-dasharray="3" stroke-miterlimit="10"/></g><g transform="translate(10,10) scale(1,1)"><rect fill="#C0C0C0" height="39" opacity="0.2" stroke="none" width="71.736328125" x="783" y="47"/></g><g transform="translate(10,10) scale(1,1)"><rect fill="#ffffff" height="39" stroke="none" width="71.736328125" x="776" y="40"/></g><g transform="translate(10,10) scale(1,1)"><path d="M 776 40 L 847.736328125 40 L 847.736328125 79 L 776 79 L 776 40 Z Z" fill="none" stroke="#000000" stroke-miterlimit="10"/></g><g transform="translate(10,10) scale(1,1)"><g><path fill="none" stroke="none"/><text fill="#000000" font-family="Arial" font-size="13px" font-style="normal" font-weight="bold" stroke="none" text-decoration="none" x="797.78271484375" y="59.5">OPC</text></g></g><g transform="translate(10,10) scale(1,1)"><path d="M 812.5 80 L 812.5 1192" fill="none" stroke="#000000" stroke-dasharray="3" stroke-miterlimit="10"/></g><g transform="translate(10,10) scale(1,1)"><rect fill="#C0C0C0" height="39" opacity="0.2" stroke="none" width="76.80810546875" x="879" y="47"/></g><g transform="translate(10,10) scale(1,1)"><rect fill="#ffffff" height="39" stroke="none" width="76.80810546875" x="872" y="40"/></g><g transform="translate(10,10) scale(1,1)"><path d="M 872 40 L 948.80810546875 40 L 948.80810546875 79 L 872 79 L 872 40 Z Z" fill="none" stroke="#000000" stroke-miterlimit="10"/></g><g transform="translate(10,10) scale(1,1)"><g><path fill="none" stroke="none"/><text fill="#000000" font-family="Arial" font-size="13px" font-style="normal" font-weight="bold" stroke="none" text-decoration="none" x="882.5791015625" y="59.5">Database</text></g></g><g transform="translate(10,10) scale(1,1)"><path d="M 911.5 80 L 911.5 1186" fill="none" stroke="#000000" stroke-dasharray="3" stroke-miterlimit="10"/></g><g transform="translate(10,10) scale(1,1)"><rect fill="#C0C0C0" height="39" opacity="0.2" stroke="none" width="97.01904296875" x="983" y="47"/></g><g transform="translate(10,10) scale(1,1)"><rect fill="#ffffff" height="39" stroke="none" width="97.01904296875" x="976" y="40"/></g><g transform="translate(10,10) scale(1,1)"><path d="M 976 40 L 1073.01904296875 40 L 1073.01904296875 79 L 976 79 L 976 40 Z Z" fill="none" stroke="#000000" stroke-miterlimit="10"/></g><g transform="translate(10,10) scale(1,1)"><g><path fill="none" stroke="none"/><text fill="#000000" font-family="Arial" font-size="13px" font-style="normal" font-weight="bold" stroke="none" text-decoration="none" x="1002.838623046875" y="59.5">Factory</text></g></g><g transform="translate(10,10) scale(1,1)"><path d="M 1025.5 80 L 1025.5 1168" fill="none" stroke="#000000" stroke-dasharray="3" stroke-miterlimit="10"/></g><g transform="translate(10,10) scale(1,1)"><rect fill="#C0C0C0" height="39" opacity="0.2" stroke="none" width="72.69482421875" x="1151" y="47"/></g><g transform="translate(10,10) scale(1,1)"><rect fill="#ffffff" height="39" stroke="none" width="72.69482421875" x="1144" y="40"/></g><g transform="translate(10,10) scale(1,1)"><path d="M 1144 40 L 1216.69482421875 40 L 1216.69482421875 79 L 1144 79 L 1144 40 Z Z" fill="none" stroke="#000000" stroke-miterlimit="10"/></g><g transform="translate(10,10) scale(1,1)"><g><path fill="none" stroke="none"/><text fill="#000000" font-family="Arial" font-size="13px" font-style="normal" font-weight="bold" stroke="none" text-decoration="none" x="1156.50244140625" y="59.5">ModBus</text></g></g><g transform="translate(10,10) scale(1,1)"><path d="M 1181.5 80 L 1181.5 1136" fill="none" stroke="#000000" stroke-dasharray="3" stroke-miterlimit="10"/></g><g transform="translate(10,10) scale(1,1)"><rect fill="#C0C0C0" height="39" opacity="0.2" stroke="none" width="78.96630859375" x="1255" y="47"/></g><g transform="translate(10,10) scale(1,1)"><rect fill="#ffffff" height="39" stroke="none" width="78.96630859375" x="1248" y="40"/></g><g transform="translate(10,10) scale(1,1)"><path d="M 1248 40 L 1326.96630859375 40 L 1326.96630859375 79 L 1248 79 L 1248 40 Z Z" fill="none" stroke="#000000" stroke-miterlimit="10"/></g><g transform="translate(10,10) scale(1,1)"><g><path fill="none" stroke="none"/><text fill="#000000" font-family="Arial" font-size="13px" font-style="normal" font-weight="bold" stroke="none" text-decoration="none" x="1271.2236328125" y="59.5">Piece</text></g></g><g transform="translate(10,10) scale(1,1)"><path d="M 1288.5 80 L 1288.5 1136" fill="none" stroke="#000000" stroke-dasharray="3" stroke-miterlimit="10"/></g><g transform="translate(10,10) scale(1,1)"><rect fill="#ffffff" height="14" stroke="none" width="14" x="344" y="160.5"/></g><g transform="translate(10,10) scale(1,1)"><path d="M 344 160.5 L 358 160.5 L 358 174.5 L 344 174.5 L 344 160.5 Z Z" fill="none" stroke="#000000" stroke-miterlimit="10"/></g><g transform="translate(10,10) scale(1,1)"><rect fill="#ffffff" height="14" stroke="none" width="14" x="453.736328125" y="192.5"/></g><g transform="translate(10,10) scale(1,1)"><path d="M 453.736328125 192.5 L 467.736328125 192.5 L 467.736328125 206.5 L 453.736328125 206.5 L 453.736328125 192.5 Z Z" fill="none" stroke="#000000" stroke-miterlimit="10"/></g><g transform="translate(10,10) scale(1,1)"><rect fill="#ffffff" height="14" stroke="none" width="14" x="688" y="240.5"/></g><g transform="translate(10,10) scale(1,1)"><path d="M 688 240.5 L 702 240.5 L 702 254.5 L 688 254.5 L 688 240.5 Z Z" fill="none" stroke="#000000" stroke-miterlimit="10"/></g><g transform="translate(10,10) scale(1,1)"><rect fill="#ffffff" height="14" stroke="none" width="14" x="816" y="288.5"/></g><g transform="translate(10,10) scale(1,1)"><path d="M 816 288.5 L 830 288.5 L 830 302.5 L 816 302.5 L 816 288.5 Z Z" fill="none" stroke="#000000" stroke-miterlimit="10"/></g><g transform="translate(10,10) scale(1,1)"><rect fill="#ffffff" height="14" stroke="none" width="14" x="816" y="336.5"/></g><g transform="translate(10,10) scale(1,1)"><path d="M 816 336.5 L 830 336.5 L 830 350.5 L 816 350.5 L 816 336.5 Z Z" fill="none" stroke="#000000" stroke-miterlimit="10"/></g><g transform="translate(10,10) scale(1,1)"><rect fill="#ffffff" height="14" stroke="none" width="14" x="1024" y="504.5"/></g><g transform="translate(10,10) scale(1,1)"><path d="M 1024 504.5 L 1038 504.5 L 1038 518.5 L 1024 518.5 L 1024 504.5 Z Z" fill="none" stroke="#000000" stroke-miterlimit="10"/></g><g transform="translate(10,10) scale(1,1)"><path d="M 1072 592 L 1117 592 L 1127 602 L 1127 628 L 1072 628 L 1072 592" fill="#ffffff" stroke="none"/></g><g transform="translate(10,10) scale(1,1)"><path d="M 1072 592 L 1117 592 L 1127 602 L 1127 628 L 1072 628 L 1072 592 L 1072 592" fill="none" stroke="#000000" stroke-miterlimit="10"/></g><g transform="translate(10,10) scale(1,1)"><path d="M 1117 592 L 1117 602 L 1127 602 L 1117 592" fill="none" stroke="#000000" stroke-miterlimit="10"/></g><g transform="translate(10,10) scale(1,1)"><g><path fill="none" stroke="none"/><text fill="#000000" font-family="Arial" font-size="13px" font-style="normal" font-weight="normal" stroke="none" text-decoration="none" x="1077" y="610">get</text><text fill="#000000" font-family="Arial" font-size="13px" font-style="normal" font-weight="normal" stroke="none" text-decoration="none" x="1077" y="623">path()</text></g></g><g transform="translate(10,10) scale(1,1)"><path d="M 1074 608 L 1100 610" fill="none" stroke="#000000" stroke-dasharray="3" stroke-miterlimit="10"/></g><g transform="translate(10,10) scale(1,1)"><rect fill="#C0C0C0" height="39" opacity="0.2" stroke="none" width="82.55908203125" x="679" y="47"/></g><g transform="translate(10,10) scale(1,1)"><rect fill="#ffffff" height="39" stroke="none" width="82.55908203125" x="672" y="40"/></g><g transform="translate(10,10) scale(1,1)"><path d="M 672 40 L 754.55908203125 40 L 754.55908203125 79 L 672 79 L 672 40 Z Z" fill="none" stroke="#000000" stroke-miterlimit="10"/></g><g transform="translate(10,10) scale(1,1)"><g><path fill="none" stroke="none"/><text fill="#000000" font-family="Arial" font-size="13px" font-style="normal" font-weight="bold" stroke="none" text-decoration="none" x="683.29638671875" y="59.5">Command</text></g></g><g transform="translate(10,10) scale(1,1)"><path d="M 714.5 80 L 714.5 1184" fill="none" stroke="#000000" stroke-dasharray="3" stroke-miterlimit="10"/></g><g transform="translate(10,10) scale(1,1)"><rect fill="#ffffff" height="14" stroke="none" width="14" x="808" y="720.5"/></g><g transform="translate(10,10) scale(1,1)"><path d="M 808 720.5 L 822 720.5 L 822 734.5 L 808 734.5 L 808 720.5 Z Z" fill="none" stroke="#000000" stroke-miterlimit="10"/></g><g transform="translate(10,10) scale(1,1)"><rect fill="#ffffff" height="14" stroke="none" width="14" x="1016" y="728.5"/></g><g transform="translate(10,10) scale(1,1)"><path d="M 1016 728.5 L 1030 728.5 L 1030 742.5 L 1016 742.5 L 1016 728.5 Z Z" fill="none" stroke="#000000" stroke-miterlimit="10"/></g><g transform="translate(10,10) scale(1,1)"><rect fill="#ffffff" height="14" stroke="none" width="14" x="448" y="1088.5"/></g><g transform="translate(10,10) scale(1,1)"><path d="M 448 1088.5 L 462 1088.5 L 462 1102.5 L 448 1102.5 L 448 1088.5 Z Z" fill="none" stroke="#000000" stroke-miterlimit="10"/></g><g transform="translate(10,10) scale(1,1)"><path d="M 120 128 L 229 128" fill="none" stroke="#000000" stroke-miterlimit="10"/></g><g transform="translate(10,10) scale(1,1)"><path d="M 218.83732514237585 132.209517756016 L 229 128 L 218.83732514237585 123.79048224398402" fill="#000000" stroke="none"/></g><g transform="translate(10,10) scale(1,1)"><path d="M 218.83732514237585 132.209517756016 L 229 128 L 218.83732514237585 123.79048224398402 L 218.83732514237585 132.209517756016" fill="none" stroke="#000000" stroke-miterlimit="10"/></g><g transform="translate(10,10) scale(1,1)"><g><path fill="none" stroke="none"/><text fill="#000000" font-family="Arial" font-size="13px" font-style="normal" font-weight="normal" stroke="none" text-decoration="none" x="135.58544921875" y="124.5">1 : new order</text></g></g><g transform="translate(10,10) scale(1,1)"><rect fill="#ffffff" height="28" stroke="none" width="13" x="229" y="128"/></g><g transform="translate(10,10) scale(1,1)"><path d="M 229 128 L 242 128 L 242 156 L 229 156 L 229 128 Z Z" fill="none" stroke="#000000" stroke-miterlimit="10"/></g><g transform="translate(10,10) scale(1,1)"><path d="M 236 168 L 344 168" fill="none" stroke="#000000" stroke-miterlimit="10"/></g><g transform="translate(10,10) scale(1,1)"><path d="M 333.83732514237585 172.209517756016 L 344 168 L 333.83732514237585 163.790482243984" fill="#000000" stroke="none"/></g><g transform="translate(10,10) scale(1,1)"><path d="M 333.83732514237585 172.209517756016 L 344 168 L 333.83732514237585 163.790482243984 L 333.83732514237585 172.209517756016" fill="none" stroke="#000000" stroke-miterlimit="10"/></g><g transform="translate(10,10) scale(1,1)"><g><path fill="none" stroke="none"/><text fill="#000000" font-family="Arial" font-size="13px" font-style="normal" font-weight="normal" stroke="none" text-decoration="none" x="265.39453125" y="160.5">2 : send</text></g></g><g transform="translate(10,10) scale(1,1)"><path d="M 351 200 L 453.736328125 200" fill="none" stroke="#000000" stroke-miterlimit="10"/></g><g transform="translate(10,10) scale(1,1)"><path d="M 443.57365326737585 204.209517756016 L 453.736328125 200 L 443.57365326737585 195.790482243984" fill="#000000" stroke="none"/></g><g transform="translate(10,10) scale(1,1)"><path d="M 443.57365326737585 204.209517756016 L 453.736328125 200 L 443.57365326737585 195.790482243984 L 443.57365326737585 204.209517756016" fill="none" stroke="#000000" stroke-miterlimit="10"/></g><g transform="translate(10,10) scale(1,1)"><g><path fill="none" stroke="none"/><text fill="#000000" font-family="Arial" font-size="13px" font-style="normal" font-weight="normal" stroke="none" text-decoration="none" x="374.22998046875" y="195.5">3 : parse</text></g></g><g transform="translate(10,10) scale(1,1)"><path d="M 460 248 L 688 248" fill="none" stroke="#000000" stroke-miterlimit="10"/></g><g transform="translate(10,10) scale(1,1)"><path d="M 677.8373251423759 252.209517756016 L 688 248 L 677.8373251423758 243.790482243984" fill="#000000" stroke="none"/></g><g transform="translate(10,10) scale(1,1)"><path d="M 677.8373251423759 252.209517756016 L 688 248 L 677.8373251423758 243.790482243984 L 677.8373251423759 252.209517756016" fill="none" stroke="#000000" stroke-miterlimit="10"/></g><g transform="translate(10,10) scale(1,1)"><g><path fill="none" stroke="none"/><text fill="#000000" font-family="Arial" font-size="13px" font-style="normal" font-weight="normal" stroke="none" text-decoration="none" x="534.5" y="244.5">4 : save order</text></g></g><g transform="translate(10,10) scale(1,1)"><path d="M 584 296 L 816 296" fill="none" stroke="#000000" stroke-miterlimit="10"/></g><g transform="translate(10,10) scale(1,1)"><path d="M 805.8373251423759 300.209517756016 L 816 296 L 805.8373251423758 291.790482243984" fill="#000000" stroke="none"/></g><g transform="translate(10,10) scale(1,1)"><path d="M 805.8373251423759 300.209517756016 L 816 296 L 805.8373251423758 291.790482243984 L 805.8373251423759 300.209517756016" fill="none" stroke="#000000" stroke-miterlimit="10"/></g><g transform="translate(10,10) scale(1,1)"><g><path fill="none" stroke="none"/><text fill="#000000" font-family="Arial" font-size="13px" font-style="normal" font-weight="normal" stroke="none" text-decoration="none" x="645.5" y="292.5">5 : poll active order</text></g></g><g transform="translate(10,10) scale(1,1)"><path d="M 816 344 L 590 344" fill="none" stroke="#000000" stroke-miterlimit="10"/></g><g transform="translate(10,10) scale(1,1)"><path d="M 600.1626748576241 339.790482243984 L 590 344 L 600.1626748576241 348.209517756016" fill="#000000" stroke="none"/></g><g transform="translate(10,10) scale(1,1)"><path d="M 600.1626748576241 339.790482243984 L 590 344 L 600.1626748576241 348.209517756016 L 600.1626748576241 339.790482243984" fill="none" stroke="#000000" stroke-miterlimit="10"/></g><g transform="translate(10,10) scale(1,1)"><g><path fill="none" stroke="none"/><text fill="#000000" font-family="Arial" font-size="13px" font-style="normal" font-weight="normal" stroke="none" text-decoration="none" x="657.892333984375" y="339.5">6 : send order</text></g></g><g transform="translate(10,10) scale(1,1)"><rect fill="#ffffff" height="392" stroke="none" width="13" x="577" y="344"/></g><g transform="translate(10,10) scale(1,1)"><path d="M 577 344 L 590 344 L 590 736 L 577 736 L 577 344 Z Z" fill="none" stroke="#000000" stroke-miterlimit="10"/></g><g transform="translate(10,10) scale(1,1)"><path d="M 590 400 L 805 400" fill="none" stroke="#000000" stroke-miterlimit="10"/></g><g transform="translate(10,10) scale(1,1)"><path d="M 794.8373251423759 404.209517756016 L 805 400 L 794.8373251423758 395.790482243984" fill="#000000" stroke="none"/></g><g transform="translate(10,10) scale(1,1)"><path d="M 794.8373251423759 404.209517756016 L 805 400 L 794.8373251423758 395.790482243984 L 794.8373251423759 404.209517756016" fill="none" stroke="#000000" stroke-miterlimit="10"/></g><g transform="translate(10,10) scale(1,1)"><g><path fill="none" stroke="none"/><text fill="#000000" font-family="Arial" font-size="13px" font-style="normal" font-weight="normal" stroke="none" text-decoration="none" x="656.5" y="396.5">7 : poll factory</text></g></g><g transform="translate(10,10) scale(1,1)"><rect fill="#ffffff" height="256" stroke="none" width="13" x="805" y="400"/></g><g transform="translate(10,10) scale(1,1)"><path d="M 805 400 L 818 400 L 818 656 L 805 656 L 805 400 Z Z" fill="none" stroke="#000000" stroke-miterlimit="10"/></g><g transform="translate(10,10) scale(1,1)"><path d="M 818 440 L 1018 440" fill="none" stroke="#000000" stroke-miterlimit="10"/></g><g transform="translate(10,10) scale(1,1)"><path d="M 1007.8373251423759 444.209517756016 L 1018 440 L 1007.8373251423758 435.790482243984" fill="#000000" stroke="none"/></g><g transform="translate(10,10) scale(1,1)"><path d="M 1007.8373251423759 444.209517756016 L 1018 440 L 1007.8373251423758 435.790482243984 L 1007.8373251423759 444.209517756016" fill="none" stroke="#000000" stroke-miterlimit="10"/></g><g transform="translate(10,10) scale(1,1)"><g><path fill="none" stroke="none"/><text fill="#000000" font-family="Arial" font-size="13px" font-style="normal" font-weight="normal" stroke="none" text-decoration="none" x="882.4736328125" y="436.5">8 : poll state</text></g></g><g transform="translate(10,10) scale(1,1)"><rect fill="#ffffff" height="184" stroke="none" width="13" x="1018" y="440"/></g><g transform="translate(10,10) scale(1,1)"><path d="M 1018 440 L 1031 440 L 1031 624 L 1018 624 L 1018 440 Z Z" fill="none" stroke="#000000" stroke-miterlimit="10"/></g><g transform="translate(10,10) scale(1,1)"><path d="M 1031 472 L 1174 472" fill="none" stroke="#000000" stroke-miterlimit="10"/></g><g transform="translate(10,10) scale(1,1)"><path d="M 1163.837325142376 476.209517756016 L 1174 472 L 1163.837325142376 467.790482243984" fill="#000000" stroke="none"/></g><g transform="translate(10,10) scale(1,1)"><path d="M 1163.837325142376 476.209517756016 L 1174 472 L 1163.837325142376 467.790482243984 L 1163.837325142376 476.209517756016" fill="none" stroke="#000000" stroke-miterlimit="10"/></g><g transform="translate(10,10) scale(1,1)"><g><path fill="none" stroke="none"/><text fill="#000000" font-family="Arial" font-size="13px" font-style="normal" font-weight="normal" stroke="none" text-decoration="none" x="1063.114990234375" y="468.5">9 : get sensor</text></g></g><g transform="translate(10,10) scale(1,1)"><rect fill="#ffffff" height="64" stroke="none" width="13" x="1174" y="472"/></g><g transform="translate(10,10) scale(1,1)"><path d="M 1174 472 L 1187 472 L 1187 536 L 1174 536 L 1174 472 Z Z" fill="none" stroke="#000000" stroke-miterlimit="10"/></g><g transform="translate(10,10) scale(1,1)"><path d="M 1174 512 L 1038 512" fill="none" stroke="#000000" stroke-miterlimit="10"/></g><g transform="translate(10,10) scale(1,1)"><path d="M 1048.162674857624 507.790482243984 L 1038 512 L 1048.162674857624 516.209517756016" fill="#000000" stroke="none"/></g><g transform="translate(10,10) scale(1,1)"><path d="M 1048.162674857624 507.790482243984 L 1038 512 L 1048.162674857624 516.209517756016 L 1048.162674857624 507.790482243984" fill="none" stroke="#000000" stroke-miterlimit="10"/></g><g transform="translate(10,10) scale(1,1)"><g><path fill="none" stroke="none"/><text fill="#000000" font-family="Arial" font-size="13px" font-style="normal" font-weight="normal" stroke="none" text-decoration="none" x="1067.5" y="500.5">10 : send sensor</text></g></g><g transform="translate(10,10) scale(1,1)"><path d="M 1031 552 L 1061 552 L 1061 572 L 1038 572" fill="none" stroke="#000000" stroke-miterlimit="10"/></g><g transform="translate(10,10) scale(1,1)"><path d="M 1048.162674857624 567.790482243984 L 1038 572 L 1048.162674857624 576.209517756016" fill="#000000" stroke="none"/></g><g transform="translate(10,10) scale(1,1)"><path d="M 1048.162674857624 567.790482243984 L 1038 572 L 1048.162674857624 576.209517756016 L 1048.162674857624 567.790482243984" fill="none" stroke="#000000" stroke-miterlimit="10"/></g><g transform="translate(10,10) scale(1,1)"><g><path fill="none" stroke="none"/><text fill="#000000" font-family="Arial" font-size="13px" font-style="normal" font-weight="normal" stroke="none" text-decoration="none" x="1042.269287109375" y="548.5">11 : track block</text></g></g><g transform="translate(10,10) scale(1,1)"><rect fill="#ffffff" height="28" stroke="none" width="13" x="1025" y="572"/></g><g transform="translate(10,10) scale(1,1)"><path d="M 1025 572 L 1038 572 L 1038 600 L 1025 600 L 1025 572 Z Z" fill="none" stroke="#000000" stroke-miterlimit="10"/></g><g transform="translate(10,10) scale(1,1)"><path d="M 1025 624 L 825 624" fill="none" stroke="#000000" stroke-miterlimit="10"/></g><g transform="translate(10,10) scale(1,1)"><path d="M 835.1626748576241 619.790482243984 L 825 624 L 835.1626748576241 628.209517756016" fill="#000000" stroke="none"/></g><g transform="translate(10,10) scale(1,1)"><path d="M 835.1626748576241 619.790482243984 L 825 624 L 835.1626748576241 628.209517756016 L 835.1626748576241 619.790482243984" fill="none" stroke="#000000" stroke-miterlimit="10"/></g><g transform="translate(10,10) scale(1,1)"><g><path fill="none" stroke="none"/><text fill="#000000" font-family="Arial" font-size="13px" font-style="normal" font-weight="normal" stroke="none" text-decoration="none" x="881.5" y="640.5">12 : send state</text></g></g><g transform="translate(10,10) scale(1,1)"><rect fill="#ffffff" height="28" stroke="none" width="13" x="812" y="624"/></g><g transform="translate(10,10) scale(1,1)"><path d="M 812 624 L 825 624 L 825 652 L 812 652 L 812 624 Z Z" fill="none" stroke="#000000" stroke-miterlimit="10"/></g><g transform="translate(10,10) scale(1,1)"><path d="M 590 712 L 707 712" fill="none" stroke="#000000" stroke-miterlimit="10"/></g><g transform="translate(10,10) scale(1,1)"><path d="M 696.8373251423759 716.209517756016 L 707 712 L 696.8373251423758 707.790482243984" fill="#000000" stroke="none"/></g><g transform="translate(10,10) scale(1,1)"><path d="M 696.8373251423759 716.209517756016 L 707 712 L 696.8373251423758 707.790482243984 L 696.8373251423759 716.209517756016" fill="none" stroke="#000000" stroke-miterlimit="10"/></g><g transform="translate(10,10) scale(1,1)"><g><path fill="none" stroke="none"/><text fill="#000000" font-family="Arial" font-size="13px" font-style="normal" font-weight="normal" stroke="none" text-decoration="none" x="606.40087890625" y="708.5">13 : command</text></g></g><g transform="translate(10,10) scale(1,1)"><rect fill="#ffffff" height="28" stroke="none" width="13" x="707" y="712"/></g><g transform="translate(10,10) scale(1,1)"><path d="M 707 712 L 720 712 L 720 740 L 707 740 L 707 712 Z Z" fill="none" stroke="#000000" stroke-miterlimit="10"/></g><g transform="translate(10,10) scale(1,1)"><path d="M 720 728 L 808 728" fill="none" stroke="#000000" stroke-miterlimit="10"/></g><g transform="translate(10,10) scale(1,1)"><path d="M 797.8373251423759 732.209517756016 L 808 728 L 797.8373251423758 723.790482243984" fill="#000000" stroke="none"/></g><g transform="translate(10,10) scale(1,1)"><path d="M 797.8373251423759 732.209517756016 L 808 728 L 797.8373251423758 723.790482243984 L 797.8373251423759 732.209517756016" fill="none" stroke="#000000" stroke-miterlimit="10"/></g><g transform="translate(10,10) scale(1,1)"><g><path fill="none" stroke="none"/><text fill="#000000" font-family="Arial" font-size="13px" font-style="normal" font-weight="normal" stroke="none" text-decoration="none" x="705.5" y="715.5">14 : send command</text></g></g><g transform="translate(10,10) scale(1,1)"><path d="M 812 736 L 1016 736" fill="none" stroke="#000000" stroke-miterlimit="10"/></g><g transform="translate(10,10) scale(1,1)"><path d="M 1005.8373251423759 740.209517756016 L 1016 736 L 1005.8373251423758 731.790482243984" fill="#000000" stroke="none"/></g><g transform="translate(10,10) scale(1,1)"><path d="M 1005.8373251423759 740.209517756016 L 1016 736 L 1005.8373251423758 731.790482243984 L 1005.8373251423759 740.209517756016" fill="none" stroke="#000000" stroke-miterlimit="10"/></g><g transform="translate(10,10) scale(1,1)"><g><path fill="none" stroke="none"/><text fill="#000000" font-family="Arial" font-size="13px" font-style="normal" font-weight="normal" stroke="none" text-decoration="none" x="851.5" y="732.5">15 : send command 2</text></g></g><g transform="translate(10,10) scale(1,1)"><path d="M 1025 832 L 1288 832" fill="none" stroke="#000000" stroke-dasharray="3" stroke-miterlimit="10"/></g><g transform="translate(10,10) scale(1,1)"><path d="M 1277.837325142376 836.209517756016 L 1288 832 L 1277.837325142376 827.790482243984" fill="none" stroke="#000000" stroke-miterlimit="10"/></g><g transform="translate(10,10) scale(1,1)"><g><path fill="none" stroke="none"/><text fill="#000000" font-family="Arial" font-size="13px" font-style="normal" font-weight="normal" stroke="none" text-decoration="none" x="1107.5" y="828.5">16 : create piece</text></g></g><g transform="translate(10,10) scale(1,1)"><path d="M 1288 872 L 1318 872 L 1318 892 L 1294 892" fill="none" stroke="#000000" stroke-miterlimit="10"/></g><g transform="translate(10,10) scale(1,1)"><path d="M 1304.162674857624 887.790482243984 L 1294 892 L 1304.162674857624 896.209517756016" fill="#000000" stroke="none"/></g><g transform="translate(10,10) scale(1,1)"><path d="M 1304.162674857624 887.790482243984 L 1294 892 L 1304.162674857624 896.209517756016 L 1304.162674857624 887.790482243984" fill="none" stroke="#000000" stroke-miterlimit="10"/></g><g transform="translate(10,10) scale(1,1)"><g><path fill="none" stroke="none"/><text fill="#000000" font-family="Arial" font-size="13px" font-style="normal" font-weight="normal" stroke="none" text-decoration="none" x="1289.187744140625" y="887.5">17 : end path</text></g></g><g transform="translate(10,10) scale(1,1)"><rect fill="#ffffff" height="28" stroke="none" width="13" x="1281" y="892"/></g><g transform="translate(10,10) scale(1,1)"><path d="M 1281 892 L 1294 892 L 1294 920 L 1281 920 L 1281 892 Z Z" fill="none" stroke="#000000" stroke-miterlimit="10"/></g><g transform="translate(10,10) scale(1,1)"><path d="M 1288 920 L 1031 920" fill="none" stroke="#000000" stroke-miterlimit="10"/></g><g transform="translate(10,10) scale(1,1)"><path d="M 1041.162674857624 915.790482243984 L 1031 920 L 1041.162674857624 924.209517756016" fill="#000000" stroke="none"/></g><g transform="translate(10,10) scale(1,1)"><path d="M 1041.162674857624 915.790482243984 L 1031 920 L 1041.162674857624 924.209517756016 L 1041.162674857624 915.790482243984" fill="none" stroke="#000000" stroke-miterlimit="10"/></g><g transform="translate(10,10) scale(1,1)"><g><path fill="none" stroke="none"/><text fill="#000000" font-family="Arial" font-size="13px" font-style="normal" font-weight="normal" stroke="none" text-decoration="none" x="1120.187744140625" y="936.5">18 : end path</text></g></g><g transform="translate(10,10) scale(1,1)"><rect fill="#ffffff" height="28" stroke="none" width="13" x="1018" y="920"/></g><g transform="translate(10,10) scale(1,1)"><path d="M 1018 920 L 1031 920 L 1031 948 L 1018 948 L 1018 920 Z Z" fill="none" stroke="#000000" stroke-miterlimit="10"/></g><g transform="translate(10,10) scale(1,1)"><path d="M 1025 1064 L 818 1064" fill="none" stroke="#000000" stroke-miterlimit="10"/></g><g transform="translate(10,10) scale(1,1)"><path d="M 828.1626748576241 1059.7904822439841 L 818 1064 L 828.1626748576241 1068.2095177560159" fill="#000000" stroke="none"/></g><g transform="translate(10,10) scale(1,1)"><path d="M 828.1626748576241 1059.7904822439841 L 818 1064 L 828.1626748576241 1068.2095177560159 L 828.1626748576241 1059.7904822439841" fill="none" stroke="#000000" stroke-miterlimit="10"/></g><g transform="translate(10,10) scale(1,1)"><g><path fill="none" stroke="none"/><text fill="#000000" font-family="Arial" font-size="13px" font-style="normal" font-weight="normal" stroke="none" text-decoration="none" x="879.66455078125" y="1080.5">19 : end order</text></g></g><g transform="translate(10,10) scale(1,1)"><rect fill="#ffffff" height="28" stroke="none" width="13" x="805" y="1064"/></g><g transform="translate(10,10) scale(1,1)"><path d="M 805 1064 L 818 1064 L 818 1092 L 805 1092 L 805 1064 Z Z" fill="none" stroke="#000000" stroke-miterlimit="10"/></g><g transform="translate(10,10) scale(1,1)"><path d="M 812 1096 L 462 1096" fill="none" stroke="#000000" stroke-miterlimit="10"/></g><g transform="translate(10,10) scale(1,1)"><path d="M 472.16267485762415 1091.7904822439841 L 462 1096 L 472.16267485762415 1100.2095177560159" fill="#000000" stroke="none"/></g><g transform="translate(10,10) scale(1,1)"><path d="M 472.16267485762415 1091.7904822439841 L 462 1096 L 472.16267485762415 1100.2095177560159 L 472.16267485762415 1091.7904822439841" fill="none" stroke="#000000" stroke-miterlimit="10"/></g><g transform="translate(10,10) scale(1,1)"><g><path fill="none" stroke="none"/><text fill="#000000" font-family="Arial" font-size="13px" font-style="normal" font-weight="normal" stroke="none" text-decoration="none" x="589.66455078125" y="1122.5">20 : end order</text></g></g><g transform="translate(10,10) scale(1,1)"><path d="M 460 1144 L 904 1144" fill="none" stroke="#000000" stroke-miterlimit="10"/></g><g transform="translate(10,10) scale(1,1)"><path d="M 893.8373251423759 1148.2095177560159 L 904 1144 L 893.8373251423758 1139.7904822439841" fill="#000000" stroke="none"/></g><g transform="translate(10,10) scale(1,1)"><path d="M 893.8373251423759 1148.2095177560159 L 904 1144 L 893.8373251423758 1139.7904822439841 L 893.8373251423759 1148.2095177560159" fill="none" stroke="#000000" stroke-miterlimit="10"/></g><g transform="translate(10,10) scale(1,1)"><g><path fill="none" stroke="none"/><text fill="#000000" font-family="Arial" font-size="13px" font-style="normal" font-weight="normal" stroke="none" text-decoration="none" x="641.66455078125" y="1140.5">21 : end order</text></g></g><g transform="translate(10,10) scale(1,1)"><rect fill="#ffffff" height="28" stroke="none" width="13" x="904" y="1144"/></g><g transform="translate(10,10) scale(1,1)"><path d="M 904 1144 L 917 1144 L 917 1172 L 904 1172 L 904 1144 Z Z" fill="none" stroke="#000000" stroke-miterlimit="10"/></g><g transform="translate(10,10) scale(1,1)"><path d="M 472 648 L 1400 648 L 1400 1032 L 472 1032 L 472 648" fill="none" stroke="#000000" stroke-miterlimit="10"/></g><g transform="translate(10,10) scale(1,1)"><path d="M 472 648 L 472 670 L 558.80810546875 670 L 569.80810546875 659 L 569.80810546875 648 L 472 648" fill="#ffffff" stroke="none"/></g><g transform="translate(10,10) scale(1,1)"><path d="M 472 648 L 472 670 L 558.80810546875 670 L 569.80810546875 659 L 569.80810546875 648 L 472 648 L 472 648" fill="none" stroke="#000000" stroke-miterlimit="10"/></g><g transform="translate(10,10) scale(1,1)"><g><path fill="none" stroke="none"/><text fill="#000000" font-family="Arial" font-size="13px" font-style="normal" font-weight="normal" stroke="none" text-decoration="none" x="496.72998046875" y="665.5">command</text></g></g><g transform="translate(10,10) scale(1,1)"><g><path fill="none" stroke="none"/><text fill="#000000" font-family="Arial" font-size="13px" font-style="normal" font-weight="bold" stroke="none" text-decoration="none" x="477" y="665.5">alt</text></g></g><g transform="translate(10,10) scale(1,1)"><path d="M 984 784 L 1360 784 L 1360 1016 L 984 1016 L 984 784" fill="none" stroke="#000000" stroke-miterlimit="10"/></g><g transform="translate(10,10) scale(1,1)"><path d="M 984 784 L 984 806 L 1095.39892578125 806 L 1106.39892578125 795 L 1106.39892578125 784 L 984 784" fill="#ffffff" stroke="none"/></g><g transform="translate(10,10) scale(1,1)"><path d="M 984 784 L 984 806 L 1095.39892578125 806 L 1106.39892578125 795 L 1106.39892578125 784 L 984 784 L 984 784" fill="none" stroke="#000000" stroke-miterlimit="10"/></g><g transform="translate(10,10) scale(1,1)"><g><path fill="none" stroke="none"/><text fill="#000000" font-family="Arial" font-size="13px" font-style="normal" font-weight="normal" stroke="none" text-decoration="none" x="1019.578125" y="801.5">create piece</text></g></g><g transform="translate(10,10) scale(1,1)"><g><path fill="none" stroke="none"/><text fill="#000000" font-family="Arial" font-size="13px" font-style="normal" font-weight="bold" stroke="none" text-decoration="none" x="989" y="801.5">loop</text></g></g></g></svg>